<svg width="87" height="64" viewBox="0 0 87 64" fill="none" xmlns="http://www.w3.org/2000/svg">
<path d="M79.6191 54.832C73.518 60.916 64.2858 64 52.1836 64H47.835V52.724L51.3313 52.08C57.2889 50.984 61.4331 48.828 63.6509 45.664C64.8081 43.9595 65.4644 42.0078 65.5556 40H52.1836C51.0303 40 49.9242 39.5786 49.1086 38.8284C48.2931 38.0783 47.835 37.0609 47.835 36V8C47.835 3.588 51.7357 0 56.5322 0H82.624C83.7774 0 84.8834 0.421425 85.699 1.17157C86.5145 1.92171 86.9727 2.93913 86.9727 4V24L86.9596 35.676C86.9987 36.12 87.825 46.64 79.6191 54.832ZM8.69727 0H34.7891C35.9424 0 37.0485 0.421425 37.864 1.17157C38.6795 1.92171 39.1377 2.93913 39.1377 4V24L39.1246 35.676C39.1638 36.12 39.99 46.64 31.7842 54.832C25.683 60.916 16.4509 64 4.34863 64H0V52.724L3.4963 52.08C9.45393 50.984 13.5982 48.828 15.816 45.664C16.9732 43.9595 17.6295 42.0078 17.7207 40H4.34863C3.1953 40 2.0892 39.5786 1.27368 38.8284C0.458153 38.0783 0 37.0609 0 36V8C0 3.588 3.90072 0 8.69727 0Z" fill="#F67C33"/>
</svg>
