<svg width="781" height="127" viewBox="0 0 781 127" fill="none" xmlns="http://www.w3.org/2000/svg">
<path d="M60.0978 5.84L56.2178 9.28L52.2178 5.84L56.0978 2.28L60.0978 5.84ZM63.7378 14.48C62.0845 15.7067 60.2978 16.32 58.3778 16.32C56.2178 16.32 54.1245 15.5333 52.0978 13.96C50.0978 12.3867 48.4845 10.28 47.2578 7.64L48.6578 6.96C49.4845 8.72 50.5378 10.12 51.8178 11.16C53.0978 12.1733 54.4311 12.68 55.8178 12.68C57.2045 12.68 58.5645 12.1467 59.8978 11.08C61.2311 10.0133 62.3245 8.57333 63.1778 6.76L67.3378 9.56C66.5911 11.5867 65.3911 13.2267 63.7378 14.48ZM37.1778 35.16C35.5245 33 34.1778 30.5067 33.1378 27.68L34.5378 26.96C35.3111 29.0933 36.2978 30.9733 37.4978 32.6C38.6978 34.2267 40.0178 35.4933 41.4578 36.4C42.9245 37.28 44.3911 37.72 45.8578 37.72C46.7911 37.72 47.6578 37.5067 48.4578 37.08C49.2845 36.6533 49.9378 36.0933 50.4178 35.4C50.8978 34.68 51.1378 33.9067 51.1378 33.08C51.1378 32.44 50.9911 31.8 50.6978 31.16C50.4311 30.52 50.0445 29.96 49.5378 29.48C48.0445 30.76 46.5378 31.4 45.0178 31.4C44.0845 31.4 43.0978 31.12 42.0578 30.56C41.0178 29.9733 40.1511 29.2533 39.4578 28.4C38.7911 27.5467 38.4578 26.7333 38.4578 25.96C38.4578 25.32 38.6711 24.7333 39.0978 24.2C39.5511 23.64 40.1378 23.2 40.8578 22.88C41.6045 22.5333 42.3911 22.36 43.2178 22.36C43.8845 22.36 44.6178 22.6 45.4178 23.08C46.2178 23.5333 47.0178 24.1867 47.8178 25.04C48.5911 24.2667 49.1911 23.48 49.6178 22.68C50.0445 21.8533 50.2578 21.0533 50.2578 20.28C50.2578 19.4267 49.9245 18.72 49.2578 18.16C48.6178 17.5733 47.8045 17.28 46.8178 17.28C45.5911 17.28 44.3645 17.5333 43.1378 18.04C41.9111 18.5467 40.7778 19.2667 39.7378 20.2L35.6578 16.56C36.7245 15.7333 37.8845 15.1067 39.1378 14.68C40.4178 14.2533 41.7245 14.04 43.0578 14.04C44.6578 14.04 46.3111 14.5067 48.0178 15.44C49.7245 16.3733 51.1378 17.5333 52.2578 18.92C53.3778 20.3067 53.9378 21.6533 53.9378 22.96C53.9378 23.8933 53.6711 24.84 53.1378 25.8C52.6045 26.76 51.8445 27.64 50.8578 28.44C52.0845 29.8267 52.8978 30.7867 53.2978 31.32C53.6978 31.4533 54.0445 31.52 54.3378 31.52C55.5378 31.52 56.6311 30.8933 57.6178 29.64C58.6045 28.36 59.2711 26.6667 59.6178 24.56C59.8845 23.04 60.3245 21.68 60.9378 20.48C61.5778 19.28 62.3245 18.3467 63.1778 17.68C64.0311 16.9867 64.9245 16.64 65.8578 16.64C67.4845 16.64 69.0578 17.2267 70.5778 18.4C72.1245 19.5467 73.3645 21.0533 74.2978 22.92C75.2578 24.7867 75.7378 26.7067 75.7378 28.68C75.7378 29.96 75.4845 31.2267 74.9778 32.48C74.4711 33.7067 73.8178 34.7067 73.0178 35.48C72.2178 36.2533 71.4045 36.64 70.5778 36.64C69.6978 36.64 68.6711 36.2267 67.4978 35.4C66.3245 34.5733 65.1111 33.4267 63.8578 31.96L64.8178 31.04C65.8578 32.24 66.7111 32.84 67.3778 32.84C68.0711 32.84 68.7645 32.4133 69.4578 31.56C70.1778 30.68 70.7511 29.56 71.1778 28.2C71.6311 26.84 71.8578 25.4667 71.8578 24.08C71.8578 22.9067 71.5645 21.92 70.9778 21.12C70.4178 20.32 69.7245 19.92 68.8978 19.92C67.9111 19.92 67.0045 20.4933 66.1778 21.64C65.3511 22.7867 64.7645 24.2667 64.4178 26.08C64.1245 27.68 63.6845 29.12 63.0978 30.4C62.5111 31.68 61.8445 32.6933 61.0978 33.44C60.3511 34.16 59.5911 34.52 58.8178 34.52C57.5378 34.52 56.1111 34.0533 54.5378 33.12C55.1778 34.1867 55.4978 35.2267 55.4978 36.24C55.4978 37.28 55.2045 38.24 54.6178 39.12C54.0311 40 53.2311 40.6933 52.2178 41.2C51.2045 41.7067 50.0978 41.96 48.8978 41.96C46.7911 41.96 44.7245 41.3733 42.6978 40.2C40.6711 39 38.8311 37.32 37.1778 35.16ZM41.8578 28.56C42.0445 28.7467 42.2578 28.84 42.4978 28.84C43.5111 28.84 44.8978 27.9867 46.6578 26.28C46.4178 25.96 46.1378 25.7067 45.8178 25.52C45.5245 25.3333 45.2311 25.24 44.9378 25.24C44.5111 25.24 44.0311 25.3867 43.4978 25.68C42.9911 25.9733 42.5511 26.3333 42.1778 26.76C41.8045 27.16 41.6178 27.5333 41.6178 27.88C41.6178 28.1467 41.6978 28.3733 41.8578 28.56ZM125.838 43.44C124.958 44.48 123.838 45 122.478 45C120.878 45 118.945 44.4133 116.678 43.24C114.438 42.0933 112.492 40.7333 110.838 39.16C109.185 37.56 108.358 36.1867 108.358 35.04V30.64C107.585 30.8533 106.932 30.96 106.398 30.96C105.678 30.96 104.865 30.76 103.958 30.36C103.052 29.96 102.132 29.3867 101.198 28.64C100.265 29.8933 99.1318 30.8267 97.7984 31.44C96.4651 32.0533 95.0384 32.3333 93.5184 32.28C95.4918 34.8933 97.3451 36.9467 99.0784 38.44C100.812 39.9333 102.238 40.68 103.358 40.68C104.158 40.68 104.932 40.2 105.678 39.24L109.038 42.52C108.638 42.9467 108.118 43.28 107.478 43.52C106.838 43.7867 106.172 43.92 105.478 43.92C103.852 43.92 101.625 42.72 98.7984 40.32C95.9984 37.8933 93.4918 35.16 91.2784 32.12C89.0651 29.0533 87.9584 26.72 87.9584 25.12C87.9584 24.2667 88.3184 23.5467 89.0384 22.96C89.7851 22.3467 90.6384 22.04 91.5984 22.04C92.5584 22.04 93.4918 22.4533 94.3984 23.28C95.3051 24.1067 96.0118 25.2 96.5184 26.56C97.1051 26.1333 97.5718 25.6 97.9184 24.96C98.2651 24.2933 98.4384 23.6 98.4384 22.88C98.4384 21.4667 97.8251 20.1067 96.5984 18.8H85.8384V14.44H95.3184L99.1984 18.76C100.105 19.7733 100.825 20.8533 101.358 22C101.892 23.12 102.172 24.16 102.198 25.12C102.198 25.6533 102.065 26.28 101.798 27C102.492 27.4267 103.238 27.64 104.038 27.64C104.732 27.64 105.452 27.5333 106.198 27.32C106.945 27.08 107.665 26.7467 108.358 26.32V18.8H101.518L97.5984 14.44H108.678L113.038 18.8V38.12C113.038 38.6267 113.398 39.2267 114.118 39.92C114.838 40.5867 115.678 41.1733 116.638 41.68C117.625 42.16 118.465 42.4 119.158 42.4C120.118 42.4 120.972 41.92 121.718 40.96L125.838 43.44ZM115.358 18.8L110.958 14.44H117.558V18.8H115.358ZM91.6784 28.52C92.9051 28.52 94.1718 28.16 95.4784 27.44C95.3451 26.9867 95.0651 26.6 94.6384 26.28C94.2118 25.96 93.7851 25.8 93.3584 25.8C92.6918 25.8 92.0918 25.9733 91.5584 26.32C91.0251 26.64 90.7584 27.0133 90.7584 27.44C90.7584 27.7067 90.8384 27.96 90.9984 28.2C91.1851 28.4133 91.4118 28.52 91.6784 28.52ZM137.744 18.8V38.12C137.744 38.6267 138.104 39.2267 138.824 39.92C139.544 40.5867 140.384 41.1733 141.344 41.68C142.331 42.16 143.171 42.4 143.864 42.4C144.851 42.4 145.704 41.92 146.424 40.96L150.504 43.44C149.678 44.48 148.584 45 147.224 45C145.571 45 143.638 44.4133 141.424 43.24C139.238 42.0667 137.331 40.7067 135.704 39.16C134.078 37.6133 133.264 36.4133 133.264 35.56V33.92C132.651 34.5333 131.958 35.0133 131.184 35.36C130.438 35.7067 129.664 35.88 128.864 35.88C127.238 35.88 125.624 35.4267 124.024 34.52C122.451 33.5867 121.158 32.4267 120.144 31.04C119.158 29.6267 118.664 28.28 118.664 27C118.664 25.9867 118.998 25.04 119.664 24.16C120.331 23.28 121.211 22.5733 122.304 22.04C123.398 21.5067 124.544 21.24 125.744 21.24C127.104 21.24 128.424 21.56 129.704 22.2C131.011 22.84 132.131 23.7333 133.064 24.88V18.8H116.424V14.44H133.424L137.744 18.8ZM142.264 18.8H140.024L135.664 14.44H142.264V18.8ZM129.464 24.56C128.344 24.56 127.224 24.84 126.104 25.4C124.984 25.96 124.064 26.68 123.344 27.56C122.624 28.4133 122.264 29.28 122.264 30.16C122.264 30.8267 122.558 31.4 123.144 31.88C123.731 32.36 124.424 32.6 125.224 32.6C126.744 32.6 128.211 32.2533 129.624 31.56C131.038 30.8667 132.184 29.8933 133.064 28.64V26.72C132.558 26.0533 131.984 25.5333 131.344 25.16C130.704 24.76 130.078 24.56 129.464 24.56ZM133.242 1.24C134.069 1.24 135.016 1.57333 136.082 2.24C137.149 2.90667 138.109 3.78667 138.962 4.88L137.842 5.88C137.282 5.18667 136.602 4.84 135.802 4.84C134.976 4.84 134.229 5.26667 133.562 6.12C132.896 6.94666 132.562 7.86666 132.562 8.88C132.562 9.86667 132.856 10.8533 133.442 11.84C134.029 12.8 134.842 13.6667 135.882 14.44H133.242L127.762 9.04C126.429 7.62666 125.402 6.92 124.682 6.92C124.362 6.92 123.669 7.08 122.602 7.4C121.669 7.69333 121.056 7.84 120.762 7.84C119.856 7.84 118.856 7.32 117.762 6.28C116.669 5.24 115.642 3.86666 114.682 2.16L115.882 1.36C116.176 1.89333 116.549 2.32 117.002 2.64C117.456 2.93333 117.909 3.08 118.362 3.08C118.709 3.08 119.149 3.01333 119.682 2.88C120.189 2.74667 120.496 2.66667 120.602 2.64C121.536 2.34666 122.216 2.2 122.642 2.2C123.122 2.2 123.682 2.41333 124.322 2.84C124.962 3.26666 125.616 3.88 126.282 4.68L128.082 6.64V6.48C128.082 5.6 128.322 4.76 128.802 3.96C129.256 3.16 129.882 2.50666 130.682 2C131.456 1.49333 132.309 1.24 133.242 1.24ZM150.384 15.88C150.384 15 150.597 14.1733 151.024 13.4C151.477 12.6 152.077 11.96 152.824 11.48C153.57 10.9733 154.357 10.72 155.184 10.72C156.25 10.72 157.464 11.1733 158.824 12.08C160.184 12.9867 161.344 14.0933 162.304 15.4C163.29 16.68 163.784 17.84 163.784 18.88V26.92H171.304V18.8H167.304L164.184 14.44H171.624L175.984 18.8V38.12C175.984 38.6267 176.344 39.2267 177.064 39.92C177.81 40.5867 178.69 41.1733 179.704 41.68C180.717 42.16 181.57 42.4 182.264 42.4C183.25 42.4 184.05 41.9333 184.664 41L188.744 43.44C187.837 44.48 186.73 45 185.424 45C183.824 45 181.89 44.4267 179.624 43.28C177.384 42.16 175.437 40.84 173.784 39.32C172.13 37.7733 171.304 36.4533 171.304 35.36V31H163.784V34.2C163.784 34.4667 163.69 34.6933 163.504 34.88C163.317 35.0667 163.09 35.16 162.824 35.16C162.157 35.16 161.184 34.6933 159.904 33.76C158.65 32.8267 157.517 31.7733 156.504 30.6C155.49 29.4267 154.984 28.52 154.984 27.88C154.984 27.5867 155.09 27.36 155.304 27.2C155.517 27.0133 155.797 26.92 156.144 26.92H159.104V15.6C159.104 15.1733 158.984 14.8133 158.744 14.52C158.504 14.2 158.197 14.04 157.824 14.04C157.37 14.04 156.89 14.2533 156.384 14.68C155.877 15.08 155.45 15.6 155.104 16.24C154.784 16.88 154.624 17.48 154.624 18.04C154.624 18.6 154.944 19.2 155.584 19.84C156.25 20.48 157.104 21.04 158.144 21.52L157.424 22.84C155.317 21.9867 153.61 20.9333 152.304 19.68C151.024 18.4 150.384 17.1333 150.384 15.88ZM173.904 14.44H180.504V18.8H178.304L173.904 14.44ZM200.713 18.8V38.12C200.713 38.6267 201.073 39.2267 201.793 39.92C202.513 40.5867 203.353 41.1733 204.313 41.68C205.3 42.16 206.14 42.4 206.833 42.4C207.82 42.4 208.673 41.92 209.393 40.96L213.473 43.44C212.646 44.48 211.553 45 210.193 45C208.54 45 206.606 44.4133 204.393 43.24C202.206 42.0667 200.3 40.7067 198.673 39.16C197.046 37.6133 196.233 36.4133 196.233 35.56V33.92C195.62 34.5333 194.926 35.0133 194.153 35.36C193.406 35.7067 192.633 35.88 191.833 35.88C190.206 35.88 188.593 35.4267 186.993 34.52C185.42 33.5867 184.126 32.4267 183.113 31.04C182.126 29.6267 181.633 28.28 181.633 27C181.633 25.9867 181.966 25.04 182.633 24.16C183.3 23.28 184.18 22.5733 185.273 22.04C186.366 21.5067 187.513 21.24 188.713 21.24C190.073 21.24 191.393 21.56 192.673 22.2C193.98 22.84 195.1 23.7333 196.033 24.88V18.8H179.393V14.44H196.393L200.713 18.8ZM205.233 18.8H202.993L198.633 14.44H205.233V18.8ZM192.433 24.56C191.313 24.56 190.193 24.84 189.073 25.4C187.953 25.96 187.033 26.68 186.313 27.56C185.593 28.4133 185.233 29.28 185.233 30.16C185.233 30.8267 185.526 31.4 186.113 31.88C186.7 32.36 187.393 32.6 188.193 32.6C189.713 32.6 191.18 32.2533 192.593 31.56C194.006 30.8667 195.153 29.8933 196.033 28.64V26.72C195.526 26.0533 194.953 25.5333 194.313 25.16C193.673 24.76 193.046 24.56 192.433 24.56ZM223.599 18.8H204.159V14.44H223.599V18.8ZM214.199 22.52C215.905 22.52 217.612 22.9733 219.319 23.88C221.025 24.76 222.625 26.0133 224.119 27.64V29.76C222.012 27.7867 219.732 26.8 217.279 26.8C216.372 26.8 215.732 26.8933 215.359 27.08C216.852 28.2267 218.025 29.4267 218.879 30.68C219.732 31.9067 220.159 33.04 220.159 34.08C220.159 35.2 219.719 36.1467 218.839 36.92C217.985 37.6933 216.985 38.08 215.839 38.08C214.372 38.08 212.905 37.5733 211.439 36.56C209.972 35.52 208.772 34.2533 207.839 32.76C206.905 31.24 206.439 29.8 206.439 28.44C206.439 27.4 206.785 26.4267 207.479 25.52C208.199 24.6133 209.159 23.8933 210.359 23.36C211.559 22.8 212.839 22.52 214.199 22.52ZM213.919 27.6C212.665 28.0267 211.652 28.64 210.879 29.44C210.132 30.2133 209.759 31.0267 209.759 31.88C209.759 32.4933 210.025 33.0667 210.559 33.6C211.119 34.1333 211.705 34.4 212.319 34.4C213.359 34.4 214.265 34.08 215.039 33.44C215.839 32.8 216.239 32.0267 216.239 31.12C216.239 30.6133 216.025 30.0533 215.599 29.44C215.199 28.8 214.639 28.1867 213.919 27.6ZM222.479 14.44H242.439L246.799 18.8V38.12C246.799 38.6267 247.159 39.2267 247.879 39.92C248.599 40.5867 249.439 41.1733 250.399 41.68C251.386 42.16 252.212 42.4 252.879 42.4C253.892 42.4 254.759 41.92 255.479 40.96L259.519 43.44C258.692 44.48 257.586 45 256.199 45C254.679 45 252.786 44.4267 250.519 43.28C248.252 42.1333 246.279 40.7733 244.599 39.2C242.946 37.6 242.119 36.2133 242.119 35.04V28.24C241.399 27.6533 240.626 27.2 239.799 26.88C238.972 26.56 238.172 26.4 237.399 26.4C235.879 26.4 234.466 26.7333 233.159 27.4C231.879 28.0667 230.866 28.9867 230.119 30.16C229.372 31.3067 228.999 32.5867 228.999 34C228.999 34.96 229.292 35.9867 229.879 37.08C230.466 38.1467 231.212 39.04 232.119 39.76C233.026 40.48 233.892 40.84 234.719 40.84C235.599 40.84 236.306 40.52 236.839 39.88L240.199 42.96C239.932 43.28 239.532 43.52 238.999 43.68C238.466 43.8667 237.879 43.96 237.239 43.96C235.372 43.96 233.506 43.24 231.639 41.8C229.772 40.3333 228.226 38.52 226.999 36.36C225.799 34.2 225.199 32.1467 225.199 30.2C225.199 28.8133 225.572 27.5467 226.319 26.4C227.066 25.2267 228.052 24.3067 229.279 23.64C230.532 22.9467 231.879 22.6 233.319 22.6C236.092 22.6 239.026 23.72 242.119 25.96V18.8H222.479V14.44ZM244.719 14.44H251.319V18.8H249.079L244.719 14.44ZM230.485 50.08C232.218 51.92 234.178 53.3733 236.365 54.44C238.525 55.5333 240.712 56.08 242.925 56.08C244.125 56.08 245.298 55.8133 246.445 55.28C247.592 54.7467 248.538 54.0667 249.285 53.24C250.005 52.4133 250.365 51.5733 250.365 50.72C250.365 49.92 250.058 49.24 249.445 48.68C248.805 48.12 248.045 47.84 247.165 47.84C246.525 47.84 245.872 47.9733 245.205 48.24C244.512 48.5333 243.952 48.8933 243.525 49.32C243.072 49.7467 242.845 50.1733 242.845 50.6C242.845 50.8933 242.965 51.1333 243.205 51.32C243.418 51.5333 243.685 51.64 244.005 51.64C244.538 51.64 245.258 51.08 246.165 49.96L248.845 51.6C248.365 52.1333 247.845 52.5467 247.285 52.84C246.698 53.16 246.112 53.32 245.525 53.32C244.512 53.32 243.472 53.0933 242.405 52.64C241.312 52.2133 240.418 51.6667 239.725 51C239.005 50.3333 238.645 49.6667 238.645 49C238.645 48.28 238.912 47.5867 239.445 46.92C239.978 46.28 240.698 45.76 241.605 45.36C242.485 44.96 243.432 44.76 244.445 44.76C245.965 44.76 247.512 45.1733 249.085 46C250.658 46.8267 251.952 47.8667 252.965 49.12C254.005 50.3733 254.525 51.5733 254.525 52.72C254.525 53.7867 254.138 54.7867 253.365 55.72C252.592 56.68 251.578 57.44 250.325 58C249.045 58.56 247.725 58.84 246.365 58.84C240.045 58.84 234.312 56.3733 229.165 51.44L230.485 50.08ZM298.807 43.44C297.927 44.48 296.807 45 295.447 45C293.847 45 291.914 44.4133 289.647 43.24C287.407 42.0933 285.461 40.7333 283.807 39.16C282.154 37.56 281.327 36.1867 281.327 35.04V30.64C280.554 30.8533 279.901 30.96 279.367 30.96C278.647 30.96 277.834 30.76 276.927 30.36C276.021 29.96 275.101 29.3867 274.167 28.64C273.234 29.8933 272.101 30.8267 270.767 31.44C269.434 32.0533 268.007 32.3333 266.487 32.28C268.461 34.8933 270.314 36.9467 272.047 38.44C273.781 39.9333 275.207 40.68 276.327 40.68C277.127 40.68 277.901 40.2 278.647 39.24L282.007 42.52C281.607 42.9467 281.087 43.28 280.447 43.52C279.807 43.7867 279.141 43.92 278.447 43.92C276.821 43.92 274.594 42.72 271.767 40.32C268.967 37.8933 266.461 35.16 264.247 32.12C262.034 29.0533 260.927 26.72 260.927 25.12C260.927 24.2667 261.287 23.5467 262.007 22.96C262.754 22.3467 263.607 22.04 264.567 22.04C265.527 22.04 266.461 22.4533 267.367 23.28C268.274 24.1067 268.981 25.2 269.487 26.56C270.074 26.1333 270.541 25.6 270.887 24.96C271.234 24.2933 271.407 23.6 271.407 22.88C271.407 21.4667 270.794 20.1067 269.567 18.8H258.807V14.44H268.287L272.167 18.76C273.074 19.7733 273.794 20.8533 274.327 22C274.861 23.12 275.141 24.16 275.167 25.12C275.167 25.6533 275.034 26.28 274.767 27C275.461 27.4267 276.207 27.64 277.007 27.64C277.701 27.64 278.421 27.5333 279.167 27.32C279.914 27.08 280.634 26.7467 281.327 26.32V18.8H274.487L270.567 14.44H281.647L286.007 18.8V38.12C286.007 38.6267 286.367 39.2267 287.087 39.92C287.807 40.5867 288.647 41.1733 289.607 41.68C290.594 42.16 291.434 42.4 292.127 42.4C293.087 42.4 293.941 41.92 294.687 40.96L298.807 43.44ZM288.327 18.8L283.927 14.44H290.527V18.8H288.327ZM264.647 28.52C265.874 28.52 267.141 28.16 268.447 27.44C268.314 26.9867 268.034 26.6 267.607 26.28C267.181 25.96 266.754 25.8 266.327 25.8C265.661 25.8 265.061 25.9733 264.527 26.32C263.994 26.64 263.727 27.0133 263.727 27.44C263.727 27.7067 263.807 27.96 263.967 28.2C264.154 28.4133 264.381 28.52 264.647 28.52ZM269.86 50.08C271.593 51.92 273.553 53.3733 275.74 54.44C277.9 55.5333 280.087 56.08 282.3 56.08C283.5 56.08 284.673 55.8133 285.82 55.28C286.967 54.7467 287.913 54.0667 288.66 53.24C289.38 52.4133 289.74 51.5733 289.74 50.72C289.74 49.92 289.433 49.24 288.82 48.68C288.18 48.12 287.42 47.84 286.54 47.84C285.9 47.84 285.247 47.9733 284.58 48.24C283.887 48.5333 283.327 48.8933 282.9 49.32C282.447 49.7467 282.22 50.1733 282.22 50.6C282.22 50.8933 282.34 51.1333 282.58 51.32C282.793 51.5333 283.06 51.64 283.38 51.64C283.913 51.64 284.633 51.08 285.54 49.96L288.22 51.6C287.74 52.1333 287.22 52.5467 286.66 52.84C286.073 53.16 285.487 53.32 284.9 53.32C283.887 53.32 282.847 53.0933 281.78 52.64C280.687 52.2133 279.793 51.6667 279.1 51C278.38 50.3333 278.02 49.6667 278.02 49C278.02 48.28 278.287 47.5867 278.82 46.92C279.353 46.28 280.073 45.76 280.98 45.36C281.86 44.96 282.807 44.76 283.82 44.76C285.34 44.76 286.887 45.1733 288.46 46C290.033 46.8267 291.327 47.8667 292.34 49.12C293.38 50.3733 293.9 51.5733 293.9 52.72C293.9 53.7867 293.513 54.7867 292.74 55.72C291.967 56.68 290.953 57.44 289.7 58C288.42 58.56 287.1 58.84 285.74 58.84C279.42 58.84 273.687 56.3733 268.54 51.44L269.86 50.08ZM290.353 7.8C290.353 6.49333 290.78 5.30666 291.633 4.24C292.486 3.17333 293.686 2.33333 295.233 1.72C296.78 1.08 298.58 0.759999 300.633 0.759999C303.54 0.759999 306.206 1.09333 308.633 1.76C311.06 2.4 313.14 3.17333 314.873 4.08C316.606 4.96 318.553 6.08 320.713 7.44C322.58 8.58667 324.006 9.41333 324.993 9.92C326.006 10.4 326.993 10.64 327.953 10.64C328.566 10.64 329.046 10.4933 329.393 10.2C329.766 9.90667 330.06 9.48 330.273 8.92L334.433 11.6C334.006 12.32 333.446 12.88 332.753 13.28C332.06 13.68 331.3 13.88 330.473 13.88C328.953 13.88 327.513 13.5733 326.153 12.96C324.793 12.32 323.113 11.3333 321.113 10C319.193 8.74666 317.486 7.73333 315.993 6.96C314.526 6.16 312.78 5.48 310.753 4.92C308.753 4.36 306.54 4.08 304.113 4.08C302.246 4.08 300.566 4.37333 299.073 4.96C297.58 5.54666 296.406 6.33333 295.553 7.32C294.7 8.30666 294.273 9.38667 294.273 10.56C294.273 12 294.913 13.2933 296.193 14.44H294.433C293.18 13.5867 292.18 12.56 291.433 11.36C290.713 10.1333 290.353 8.94667 290.353 7.8ZM289.393 14.44H294.113L298.473 18.8V38.12C298.473 38.6267 298.833 39.2267 299.553 39.92C300.273 40.5867 301.113 41.1733 302.073 41.68C303.06 42.16 303.9 42.4 304.593 42.4C305.553 42.4 306.393 41.92 307.113 40.96L311.233 43.44C310.833 43.9467 310.34 44.3333 309.753 44.6C309.193 44.8667 308.58 45 307.913 45C306.313 45 304.38 44.4133 302.113 43.24C299.873 42.0933 297.926 40.7333 296.273 39.16C294.62 37.56 293.793 36.1867 293.793 35.04V18.8H289.393V14.44ZM296.433 14.44H302.993V18.8H300.753L296.433 14.44ZM337.414 18.8V38.12C337.414 38.6267 337.774 39.2267 338.494 39.92C339.241 40.5867 340.107 41.1733 341.094 41.68C342.107 42.16 342.961 42.4 343.654 42.4C344.587 42.4 345.401 41.9333 346.094 41L350.134 43.44C349.227 44.48 348.107 45 346.774 45C344.961 45 342.934 44.44 340.694 43.32C338.481 42.2 336.307 40.6267 334.174 38.6C333.054 39.8267 331.801 40.7733 330.414 41.44C329.054 42.1067 327.667 42.44 326.254 42.44C322.361 42.44 317.787 40.48 312.534 36.56C309.734 34.5067 307.574 32.6 306.054 30.84C304.561 29.0533 303.814 27.5333 303.814 26.28C303.814 25.4 304.174 24.64 304.894 24C305.641 23.36 306.507 23.04 307.494 23.04C308.214 23.04 309.001 23.3733 309.854 24.04C310.707 24.7067 311.534 25.6267 312.334 26.8C312.814 26.4267 313.187 25.92 313.454 25.28C313.747 24.6133 313.894 23.9067 313.894 23.16C313.894 21.5067 313.521 20.0533 312.774 18.8H301.854V14.44H310.454L314.494 18.8C315.267 19.84 315.881 21.08 316.334 22.52C316.787 23.9333 317.014 25.2133 317.014 26.36C317.014 27.88 316.441 29.28 315.294 30.56C314.174 31.8133 312.707 32.7333 310.894 33.32C313.054 35.32 315.174 36.8667 317.254 37.96C319.334 39.0267 321.241 39.56 322.974 39.56C324.681 39.56 326.387 39.12 328.094 38.24C329.827 37.3333 331.361 36.0933 332.694 34.52V32.12C332.054 32.8933 331.307 33.4933 330.454 33.92C329.627 34.32 328.747 34.52 327.814 34.52C326.721 34.52 325.547 34.16 324.294 33.44C323.041 32.72 321.987 31.84 321.134 30.8C320.281 29.7333 319.854 28.72 319.854 27.76C319.854 26.8267 320.161 25.9467 320.774 25.12C321.387 24.2933 322.201 23.6267 323.214 23.12C324.227 22.6133 325.294 22.36 326.414 22.36C327.534 22.36 328.641 22.6267 329.734 23.16C330.854 23.6667 331.841 24.3733 332.694 25.28V18.8H316.814L312.774 14.44H333.094L337.414 18.8ZM341.934 18.8H339.694L335.454 14.44H341.934V18.8ZM329.414 25.4C328.534 25.4 327.627 25.64 326.694 26.12C325.761 26.6 324.974 27.2 324.334 27.92C323.721 28.64 323.414 29.3333 323.414 30C323.414 30.3733 323.587 30.6933 323.934 30.96C324.281 31.2267 324.694 31.36 325.174 31.36C326.347 31.36 327.574 30.9867 328.854 30.24C330.161 29.4933 331.387 28.4667 332.534 27.16C332.134 26.6267 331.654 26.2 331.094 25.88C330.534 25.56 329.974 25.4 329.414 25.4ZM309.774 26.52C309.134 26.52 308.521 26.7467 307.934 27.2C307.347 27.6533 307.054 28.16 307.054 28.72C307.054 29.2 307.321 29.6667 307.854 30.12C309.161 29.6933 310.321 28.96 311.334 27.92C311.041 27.4667 310.747 27.12 310.454 26.88C310.187 26.64 309.961 26.52 309.774 26.52ZM340.799 14.44H361.119L365.439 18.8V38.12C365.439 38.6267 365.799 39.2267 366.519 39.92C367.239 40.5867 368.093 41.1733 369.079 41.68C370.066 42.16 370.906 42.4 371.599 42.4C372.053 42.4 372.493 42.2667 372.919 42C373.373 41.76 373.773 41.4133 374.119 40.96L378.239 43.44C377.359 44.48 376.226 45 374.839 45C373.319 45 371.426 44.4267 369.159 43.28C366.893 42.16 364.919 40.8267 363.239 39.28C361.586 37.7067 360.759 36.2933 360.759 35.04V29.76C358.653 27.7867 356.373 26.8 353.919 26.8C353.013 26.8 352.373 26.8933 351.999 27.08C353.493 28.2267 354.666 29.4267 355.519 30.68C356.373 31.9067 356.799 33.04 356.799 34.08C356.799 35.2 356.359 36.1467 355.479 36.92C354.626 37.6933 353.626 38.08 352.479 38.08C351.173 38.08 349.773 37.56 348.279 36.52C346.813 35.48 345.573 34.2133 344.559 32.72C343.573 31.2 343.079 29.7733 343.079 28.44C343.079 27.4 343.426 26.4267 344.119 25.52C344.839 24.6133 345.799 23.8933 346.999 23.36C348.199 22.8 349.479 22.52 350.839 22.52C352.546 22.52 354.253 22.9733 355.959 23.88C357.666 24.76 359.266 26.0133 360.759 27.64V18.8H340.799V14.44ZM363.399 14.44H369.959V18.8H367.759L363.399 14.44ZM348.959 34.4C349.999 34.4 350.906 34.08 351.679 33.44C352.479 32.8 352.879 32.0267 352.879 31.12C352.879 30.6133 352.666 30.0533 352.239 29.44C351.839 28.8 351.279 28.1867 350.559 27.6C349.306 28.0267 348.293 28.64 347.519 29.44C346.773 30.2133 346.399 31.0267 346.399 31.88C346.399 32.4933 346.666 33.0667 347.199 33.6C347.759 34.1333 348.346 34.4 348.959 34.4ZM373.405 25.52L377.405 21.96L381.405 25.52L377.405 29.08L373.405 25.52ZM377.405 32.32L381.405 35.84L377.365 39.44L373.405 35.84L377.405 32.32ZM398.023 12.72V39.24C398.023 39.7467 398.383 40.3467 399.103 41.04C399.823 41.7333 400.663 42.32 401.623 42.8C402.609 43.3067 403.436 43.56 404.103 43.56C405.036 43.56 405.903 43.08 406.703 42.12L410.783 44.56C410.383 45.0667 409.889 45.4533 409.303 45.72C408.743 46.0133 408.129 46.16 407.463 46.16C406.023 46.16 404.156 45.5867 401.863 44.44C399.596 43.32 397.609 41.9733 395.903 40.4C394.196 38.8267 393.343 37.44 393.343 36.24V8.96L398.023 12.72ZM462.792 43.44C461.912 44.48 460.792 45 459.432 45C457.832 45 455.898 44.4133 453.632 43.24C451.392 42.0933 449.445 40.7333 447.792 39.16C446.138 37.56 445.312 36.1867 445.312 35.04V30.64C444.538 30.8533 443.885 30.96 443.352 30.96C442.632 30.96 441.818 30.76 440.912 30.36C440.005 29.96 439.085 29.3867 438.152 28.64C437.218 29.8933 436.085 30.8267 434.752 31.44C433.418 32.0533 431.992 32.3333 430.472 32.28C432.445 34.8933 434.298 36.9467 436.032 38.44C437.765 39.9333 439.192 40.68 440.312 40.68C441.112 40.68 441.885 40.2 442.632 39.24L445.992 42.52C445.592 42.9467 445.072 43.28 444.432 43.52C443.792 43.7867 443.125 43.92 442.432 43.92C440.805 43.92 438.578 42.72 435.752 40.32C432.952 37.8933 430.445 35.16 428.232 32.12C426.018 29.0533 424.912 26.72 424.912 25.12C424.912 24.2667 425.272 23.5467 425.992 22.96C426.738 22.3467 427.592 22.04 428.552 22.04C429.512 22.04 430.445 22.4533 431.352 23.28C432.258 24.1067 432.965 25.2 433.472 26.56C434.058 26.1333 434.525 25.6 434.872 24.96C435.218 24.2933 435.392 23.6 435.392 22.88C435.392 21.4667 434.778 20.1067 433.552 18.8H422.792V14.44H432.272L436.152 18.76C437.058 19.7733 437.778 20.8533 438.312 22C438.845 23.12 439.125 24.16 439.152 25.12C439.152 25.6533 439.018 26.28 438.752 27C439.445 27.4267 440.192 27.64 440.992 27.64C441.685 27.64 442.405 27.5333 443.152 27.32C443.898 27.08 444.618 26.7467 445.312 26.32V18.8H438.472L434.552 14.44H445.632L449.992 18.8V38.12C449.992 38.6267 450.352 39.2267 451.072 39.92C451.792 40.5867 452.632 41.1733 453.592 41.68C454.578 42.16 455.418 42.4 456.112 42.4C457.072 42.4 457.925 41.92 458.672 40.96L462.792 43.44ZM452.312 18.8L447.912 14.44H454.512V18.8H452.312ZM428.632 28.52C429.858 28.52 431.125 28.16 432.432 27.44C432.298 26.9867 432.018 26.6 431.592 26.28C431.165 25.96 430.738 25.8 430.312 25.8C429.645 25.8 429.045 25.9733 428.512 26.32C427.978 26.64 427.712 27.0133 427.712 27.44C427.712 27.7067 427.792 27.96 427.952 28.2C428.138 28.4133 428.365 28.52 428.632 28.52ZM474.698 18.8V38.12C474.698 38.6267 475.058 39.2267 475.778 39.92C476.498 40.5867 477.338 41.1733 478.298 41.68C479.284 42.16 480.124 42.4 480.818 42.4C481.804 42.4 482.658 41.92 483.378 40.96L487.458 43.44C486.631 44.48 485.538 45 484.178 45C482.524 45 480.591 44.4133 478.378 43.24C476.191 42.0667 474.284 40.7067 472.658 39.16C471.031 37.6133 470.218 36.4133 470.218 35.56V33.92C469.604 34.5333 468.911 35.0133 468.138 35.36C467.391 35.7067 466.618 35.88 465.818 35.88C464.191 35.88 462.578 35.4267 460.978 34.52C459.404 33.5867 458.111 32.4267 457.098 31.04C456.111 29.6267 455.618 28.28 455.618 27C455.618 25.9867 455.951 25.04 456.618 24.16C457.284 23.28 458.164 22.5733 459.258 22.04C460.351 21.5067 461.498 21.24 462.698 21.24C464.058 21.24 465.378 21.56 466.658 22.2C467.964 22.84 469.084 23.7333 470.018 24.88V18.8H453.377V14.44H470.378L474.698 18.8ZM479.218 18.8H476.978L472.618 14.44H479.218V18.8ZM466.418 24.56C465.298 24.56 464.178 24.84 463.058 25.4C461.938 25.96 461.018 26.68 460.298 27.56C459.578 28.4133 459.217 29.28 459.217 30.16C459.217 30.8267 459.511 31.4 460.098 31.88C460.684 32.36 461.378 32.6 462.178 32.6C463.698 32.6 465.164 32.2533 466.578 31.56C467.991 30.8667 469.138 29.8933 470.018 28.64V26.72C469.511 26.0533 468.938 25.5333 468.298 25.16C467.658 24.76 467.031 24.56 466.418 24.56ZM470.195 1.24C471.022 1.24 471.969 1.57333 473.035 2.24C474.102 2.90667 475.062 3.78667 475.915 4.88L474.795 5.88C474.235 5.18667 473.555 4.84 472.755 4.84C471.929 4.84 471.182 5.26667 470.515 6.12C469.849 6.94666 469.515 7.86666 469.515 8.88C469.515 9.86667 469.809 10.8533 470.395 11.84C470.982 12.8 471.795 13.6667 472.835 14.44H470.195L464.715 9.04C463.382 7.62666 462.355 6.92 461.635 6.92C461.315 6.92 460.622 7.08 459.555 7.4C458.622 7.69333 458.009 7.84 457.715 7.84C456.809 7.84 455.809 7.32 454.715 6.28C453.622 5.24 452.595 3.86666 451.635 2.16L452.835 1.36C453.129 1.89333 453.502 2.32 453.955 2.64C454.409 2.93333 454.862 3.08 455.315 3.08C455.662 3.08 456.102 3.01333 456.635 2.88C457.142 2.74667 457.449 2.66667 457.555 2.64C458.489 2.34666 459.169 2.2 459.595 2.2C460.075 2.2 460.635 2.41333 461.275 2.84C461.915 3.26666 462.569 3.88 463.235 4.68L465.035 6.64V6.48C465.035 5.6 465.275 4.76 465.755 3.96C466.209 3.16 466.835 2.50666 467.635 2C468.409 1.49333 469.262 1.24 470.195 1.24ZM526.737 43.44C525.857 44.48 524.737 45 523.377 45C521.777 45 519.844 44.4133 517.577 43.24C515.337 42.0933 513.39 40.7333 511.737 39.16C510.084 37.56 509.257 36.1867 509.257 35.04V30.64C508.484 30.8533 507.83 30.96 507.297 30.96C506.577 30.96 505.764 30.76 504.857 30.36C503.95 29.96 503.03 29.3867 502.097 28.64C501.164 29.8933 500.03 30.8267 498.697 31.44C497.364 32.0533 495.937 32.3333 494.417 32.28C496.39 34.8933 498.244 36.9467 499.977 38.44C501.71 39.9333 503.137 40.68 504.257 40.68C505.057 40.68 505.83 40.2 506.577 39.24L509.937 42.52C509.537 42.9467 509.017 43.28 508.377 43.52C507.737 43.7867 507.07 43.92 506.377 43.92C504.75 43.92 502.524 42.72 499.697 40.32C496.897 37.8933 494.39 35.16 492.177 32.12C489.964 29.0533 488.857 26.72 488.857 25.12C488.857 24.2667 489.217 23.5467 489.937 22.96C490.684 22.3467 491.537 22.04 492.497 22.04C493.457 22.04 494.39 22.4533 495.297 23.28C496.204 24.1067 496.91 25.2 497.417 26.56C498.004 26.1333 498.47 25.6 498.817 24.96C499.164 24.2933 499.337 23.6 499.337 22.88C499.337 21.4667 498.724 20.1067 497.497 18.8H486.737V14.44H496.217L500.097 18.76C501.004 19.7733 501.724 20.8533 502.257 22C502.79 23.12 503.07 24.16 503.097 25.12C503.097 25.6533 502.964 26.28 502.697 27C503.39 27.4267 504.137 27.64 504.937 27.64C505.63 27.64 506.35 27.5333 507.097 27.32C507.844 27.08 508.564 26.7467 509.257 26.32V18.8H502.417L498.497 14.44H509.577L513.937 18.8V38.12C513.937 38.6267 514.297 39.2267 515.017 39.92C515.737 40.5867 516.577 41.1733 517.537 41.68C518.524 42.16 519.364 42.4 520.057 42.4C521.017 42.4 521.87 41.92 522.617 40.96L526.737 43.44ZM516.257 18.8L511.857 14.44H518.457V18.8H516.257ZM492.577 28.52C493.804 28.52 495.07 28.16 496.377 27.44C496.244 26.9867 495.964 26.6 495.537 26.28C495.11 25.96 494.684 25.8 494.257 25.8C493.59 25.8 492.99 25.9733 492.457 26.32C491.924 26.64 491.657 27.0133 491.657 27.44C491.657 27.7067 491.737 27.96 491.897 28.2C492.084 28.4133 492.31 28.52 492.577 28.52ZM536.763 18.8H517.323V14.44H536.763V18.8ZM527.363 22.52C529.069 22.52 530.776 22.9733 532.483 23.88C534.189 24.76 535.789 26.0133 537.283 27.64V29.76C535.176 27.7867 532.896 26.8 530.443 26.8C529.536 26.8 528.896 26.8933 528.523 27.08C530.016 28.2267 531.189 29.4267 532.043 30.68C532.896 31.9067 533.323 33.04 533.323 34.08C533.323 35.2 532.883 36.1467 532.003 36.92C531.149 37.6933 530.149 38.08 529.003 38.08C527.536 38.08 526.069 37.5733 524.603 36.56C523.136 35.52 521.936 34.2533 521.003 32.76C520.069 31.24 519.603 29.8 519.603 28.44C519.603 27.4 519.949 26.4267 520.643 25.52C521.363 24.6133 522.323 23.8933 523.523 23.36C524.723 22.8 526.003 22.52 527.363 22.52ZM527.083 27.6C525.829 28.0267 524.816 28.64 524.043 29.44C523.296 30.2133 522.923 31.0267 522.923 31.88C522.923 32.4933 523.189 33.0667 523.723 33.6C524.283 34.1333 524.869 34.4 525.483 34.4C526.523 34.4 527.429 34.08 528.203 33.44C529.003 32.8 529.403 32.0267 529.403 31.12C529.403 30.6133 529.189 30.0533 528.763 29.44C528.363 28.8 527.803 28.1867 527.083 27.6ZM535.643 14.44H555.603L559.963 18.8V38.12C559.963 38.6267 560.323 39.2267 561.043 39.92C561.763 40.5867 562.603 41.1733 563.563 41.68C564.55 42.16 565.376 42.4 566.043 42.4C567.056 42.4 567.923 41.92 568.643 40.96L572.683 43.44C571.856 44.48 570.75 45 569.363 45C567.843 45 565.95 44.4267 563.683 43.28C561.416 42.1333 559.443 40.7733 557.763 39.2C556.11 37.6 555.283 36.2133 555.283 35.04V28.24C554.563 27.6533 553.79 27.2 552.963 26.88C552.136 26.56 551.336 26.4 550.563 26.4C549.043 26.4 547.63 26.7333 546.323 27.4C545.043 28.0667 544.03 28.9867 543.283 30.16C542.536 31.3067 542.163 32.5867 542.163 34C542.163 34.96 542.456 35.9867 543.043 37.08C543.63 38.1467 544.376 39.04 545.283 39.76C546.19 40.48 547.056 40.84 547.883 40.84C548.763 40.84 549.47 40.52 550.003 39.88L553.363 42.96C553.096 43.28 552.696 43.52 552.163 43.68C551.63 43.8667 551.043 43.96 550.403 43.96C548.536 43.96 546.67 43.24 544.803 41.8C542.936 40.3333 541.39 38.52 540.163 36.36C538.963 34.2 538.363 32.1467 538.363 30.2C538.363 28.8133 538.736 27.5467 539.483 26.4C540.23 25.2267 541.216 24.3067 542.443 23.64C543.696 22.9467 545.043 22.6 546.483 22.6C549.256 22.6 552.19 23.72 555.283 25.96V18.8H535.643V14.44ZM557.883 14.44H564.483V18.8H562.243L557.883 14.44ZM543.649 50.08C545.382 51.92 547.342 53.3733 549.529 54.44C551.689 55.5333 553.876 56.08 556.089 56.08C557.289 56.08 558.462 55.8133 559.609 55.28C560.756 54.7467 561.702 54.0667 562.449 53.24C563.169 52.4133 563.529 51.5733 563.529 50.72C563.529 49.92 563.222 49.24 562.609 48.68C561.969 48.12 561.209 47.84 560.329 47.84C559.689 47.84 559.036 47.9733 558.369 48.24C557.676 48.5333 557.116 48.8933 556.689 49.32C556.236 49.7467 556.009 50.1733 556.009 50.6C556.009 50.8933 556.129 51.1333 556.369 51.32C556.582 51.5333 556.849 51.64 557.169 51.64C557.702 51.64 558.422 51.08 559.329 49.96L562.009 51.6C561.529 52.1333 561.009 52.5467 560.449 52.84C559.862 53.16 559.276 53.32 558.689 53.32C557.676 53.32 556.636 53.0933 555.569 52.64C554.476 52.2133 553.582 51.6667 552.889 51C552.169 50.3333 551.809 49.6667 551.809 49C551.809 48.28 552.076 47.5867 552.609 46.92C553.142 46.28 553.862 45.76 554.769 45.36C555.649 44.96 556.596 44.76 557.609 44.76C559.129 44.76 560.676 45.1733 562.249 46C563.822 46.8267 565.116 47.8667 566.129 49.12C567.169 50.3733 567.689 51.5733 567.689 52.72C567.689 53.7867 567.302 54.7867 566.529 55.72C565.756 56.68 564.742 57.44 563.489 58C562.209 58.56 560.889 58.84 559.529 58.84C553.209 58.84 547.476 56.3733 542.329 51.44L543.649 50.08ZM572.171 7.12C572.171 6.08 572.505 5.10666 573.171 4.2C573.838 3.29333 574.731 2.58667 575.851 2.08C576.998 1.54667 578.251 1.28 579.611 1.28C581.905 1.28 583.971 1.62667 585.811 2.32C587.678 2.98666 589.238 3.76 590.491 4.64C591.771 5.52 593.185 6.62667 594.731 7.96C595.718 8.84 596.505 9.48 597.091 9.88C597.705 10.28 598.251 10.48 598.731 10.48C599.051 10.48 599.358 10.3867 599.651 10.2C599.971 10.0133 600.225 9.78666 600.411 9.52L603.971 12.16C603.491 12.8 602.945 13.2933 602.331 13.64C601.745 13.96 601.158 14.12 600.571 14.12C599.665 14.12 598.825 13.8667 598.051 13.36C597.305 12.8267 596.318 11.9733 595.091 10.8C593.865 9.6 592.745 8.62666 591.731 7.88C590.745 7.10667 589.518 6.44 588.051 5.88C586.585 5.32 584.918 5.04 583.051 5.04C581.718 5.04 580.531 5.26667 579.491 5.72C578.451 6.14666 577.638 6.73333 577.051 7.48C576.491 8.2 576.211 8.98667 576.211 9.84C576.211 10.5067 576.438 11.2667 576.891 12.12C577.345 12.9467 577.958 13.72 578.731 14.44H576.971C575.478 13.3733 574.305 12.2 573.451 10.92C572.598 9.64 572.171 8.37333 572.171 7.12ZM571.971 14.44H576.691L581.051 18.8V38.12C581.051 38.6267 581.411 39.2267 582.131 39.92C582.851 40.5867 583.691 41.1733 584.651 41.68C585.638 42.16 586.478 42.4 587.171 42.4C588.131 42.4 588.971 41.92 589.691 40.96L593.811 43.44C593.411 43.9467 592.918 44.3333 592.331 44.6C591.771 44.8667 591.158 45 590.491 45C588.891 45 586.958 44.4133 584.691 43.24C582.451 42.0933 580.505 40.7333 578.851 39.16C577.198 37.56 576.371 36.1867 576.371 35.04V18.8H571.971V14.44ZM579.011 14.44H585.571V18.8H583.331L579.011 14.44ZM584.432 14.44H604.752L609.072 18.8V38.12C609.072 38.6267 609.432 39.2267 610.152 39.92C610.872 40.5867 611.726 41.1733 612.712 41.68C613.699 42.16 614.539 42.4 615.232 42.4C615.686 42.4 616.126 42.2667 616.552 42C617.006 41.76 617.406 41.4133 617.752 40.96L621.872 43.44C620.992 44.48 619.859 45 618.472 45C616.952 45 615.059 44.4267 612.792 43.28C610.526 42.16 608.552 40.8267 606.872 39.28C605.219 37.7067 604.392 36.2933 604.392 35.04V29.76C602.286 27.7867 600.006 26.8 597.552 26.8C596.646 26.8 596.006 26.8933 595.632 27.08C597.126 28.2267 598.299 29.4267 599.152 30.68C600.006 31.9067 600.432 33.04 600.432 34.08C600.432 35.2 599.992 36.1467 599.112 36.92C598.259 37.6933 597.259 38.08 596.112 38.08C594.806 38.08 593.406 37.56 591.912 36.52C590.446 35.48 589.206 34.2133 588.192 32.72C587.206 31.2 586.712 29.7733 586.712 28.44C586.712 27.4 587.059 26.4267 587.752 25.52C588.472 24.6133 589.432 23.8933 590.632 23.36C591.832 22.8 593.112 22.52 594.472 22.52C596.179 22.52 597.886 22.9733 599.592 23.88C601.299 24.76 602.899 26.0133 604.392 27.64V18.8H584.432V14.44ZM607.032 14.44H613.592V18.8H611.392L607.032 14.44ZM592.592 34.4C593.632 34.4 594.539 34.08 595.312 33.44C596.112 32.8 596.512 32.0267 596.512 31.12C596.512 30.6133 596.299 30.0533 595.872 29.44C595.472 28.8 594.912 28.1867 594.192 27.6C592.939 28.0267 591.926 28.64 591.152 29.44C590.406 30.2133 590.032 31.0267 590.032 31.88C590.032 32.4933 590.299 33.0667 590.832 33.6C591.392 34.1333 591.979 34.4 592.592 34.4ZM625.598 18.8C626.798 20.24 627.718 21.64 628.358 23C628.998 24.3333 629.318 25.52 629.318 26.56C629.318 27.7333 628.945 28.7867 628.198 29.72C627.478 30.6533 626.531 31.3867 625.358 31.92C624.211 32.4533 623.038 32.72 621.838 32.72C621.491 32.72 621.238 32.7067 621.078 32.68C623.718 35.72 626.078 38.0533 628.158 39.68C630.238 41.28 631.931 42.08 633.238 42.08C633.771 42.08 634.265 41.9467 634.718 41.68C635.171 41.4133 635.518 41.0667 635.758 40.64L639.638 43.6C639.211 44.0533 638.705 44.4133 638.118 44.68C637.558 44.9733 636.971 45.12 636.358 45.12C634.865 45.12 632.998 44.44 630.758 43.08C628.545 41.7467 626.118 39.8 623.478 37.24C620.998 34.9467 618.878 32.72 617.118 30.56C615.385 28.4 614.518 26.6933 614.518 25.44C614.518 24.56 614.878 23.8133 615.598 23.2C616.345 22.5867 617.211 22.28 618.198 22.28C619.238 22.28 620.251 22.7333 621.238 23.64C622.251 24.5467 623.078 25.7333 623.718 27.2C624.331 26.8 624.825 26.3067 625.198 25.72C625.598 25.1067 625.798 24.4533 625.798 23.76C625.798 22.9333 625.545 22.0267 625.038 21.04C624.531 20.0267 623.931 19.28 623.238 18.8H612.518V14.44H622.038L625.598 18.8ZM631.758 18.8H627.878L624.278 14.44H631.758V18.8ZM620.198 26.04C619.531 26.04 618.945 26.2133 618.438 26.56C617.958 26.9067 617.718 27.3067 617.718 27.76C617.718 28.08 617.811 28.36 617.998 28.6C618.211 28.84 618.465 28.96 618.758 28.96C620.011 28.96 621.265 28.6 622.518 27.88C622.305 27.32 621.971 26.88 621.518 26.56C621.091 26.2133 620.651 26.04 620.198 26.04ZM630.682 14.44H635.402L639.762 18.8V38.12C639.762 38.6267 640.122 39.2267 640.842 39.92C641.562 40.5867 642.402 41.1733 643.362 41.68C644.349 42.16 645.189 42.4 645.882 42.4C646.842 42.4 647.682 41.92 648.402 40.96L652.522 43.44C652.122 43.9467 651.629 44.3333 651.042 44.6C650.482 44.8667 649.869 45 649.202 45C647.602 45 645.669 44.4133 643.402 43.24C641.162 42.0933 639.216 40.7333 637.562 39.16C635.909 37.56 635.082 36.1867 635.082 35.04V18.8H630.682V14.44ZM637.722 14.44H644.282V18.8H642.042L637.722 14.44ZM665.623 18.8V38.12C665.623 38.6267 665.983 39.2267 666.703 39.92C667.45 40.5867 668.316 41.1733 669.303 41.68C670.316 42.16 671.17 42.4 671.863 42.4C672.85 42.4 673.663 41.9333 674.303 41L678.383 43.44C677.93 43.9467 677.41 44.3333 676.823 44.6C676.263 44.8667 675.663 45 675.023 45C673.45 45 671.53 44.4267 669.263 43.28C667.023 42.16 665.076 40.84 663.423 39.32C661.77 37.7733 660.943 36.4533 660.943 35.36V30.64H653.303V33.72C653.303 34.0133 653.21 34.2533 653.023 34.44C652.836 34.6267 652.596 34.72 652.303 34.72C651.716 34.72 650.796 34.24 649.543 33.28C648.29 32.32 647.156 31.2533 646.143 30.08C645.13 28.9067 644.623 28.0267 644.623 27.44C644.623 27.1733 644.743 26.9467 644.983 26.76C645.223 26.5733 645.53 26.48 645.903 26.48H648.623V18.8H643.143V14.44H661.223L665.623 18.8ZM670.103 18.8H667.903L663.543 14.44H670.103V18.8ZM653.303 18.8V26.48H660.943V18.8H653.303ZM692.002 18.8V38.12C692.002 38.6267 692.375 39.2267 693.122 39.92C693.868 40.5867 694.735 41.1733 695.722 41.68C696.735 42.16 697.588 42.4 698.282 42.4C699.268 42.4 700.068 41.9333 700.682 41L704.762 43.44C703.855 44.48 702.762 45 701.482 45C699.882 45 697.948 44.4267 695.682 43.28C693.442 42.16 691.482 40.84 689.802 39.32C688.148 37.7733 687.322 36.4533 687.322 35.36V33.24C686.575 33.9333 685.735 34.4667 684.802 34.84C683.895 35.2133 682.975 35.4 682.042 35.4C680.362 35.4 678.748 34.92 677.202 33.96C675.655 32.9733 674.308 31.6267 673.162 29.92C672.015 28.1867 671.188 26.2533 670.682 24.12L671.362 23.68C672.002 24 672.788 24.16 673.722 24.16C674.548 24.16 675.362 24.0133 676.162 23.72C676.962 23.4267 677.615 23.0267 678.122 22.52C678.628 22.0133 678.882 21.4667 678.882 20.88C678.882 20.2933 678.708 19.8 678.362 19.4C678.042 19 677.588 18.8 677.002 18.8H669.042V14.44H675.442L679.642 18.8C680.815 20.08 681.402 21.68 681.402 23.6C681.402 25.04 680.748 26.2 679.442 27.08C678.135 27.9333 676.375 28.36 674.162 28.36C674.535 29.3467 675.175 30.16 676.082 30.8C676.988 31.44 678.015 31.76 679.162 31.76C680.735 31.76 682.242 31.36 683.682 30.56C685.122 29.76 686.335 28.6667 687.322 27.28V18.8H681.922L677.762 14.44H687.682L692.002 18.8ZM696.562 18.8H694.322L689.962 14.44H696.562V18.8ZM695.409 14.44H700.129L704.489 18.8V38.12C704.489 38.6267 704.849 39.2267 705.569 39.92C706.289 40.5867 707.129 41.1733 708.089 41.68C709.075 42.16 709.915 42.4 710.609 42.4C711.569 42.4 712.409 41.92 713.129 40.96L717.249 43.44C716.849 43.9467 716.355 44.3333 715.769 44.6C715.209 44.8667 714.595 45 713.929 45C712.329 45 710.395 44.4133 708.129 43.24C705.889 42.0933 703.942 40.7333 702.289 39.16C700.635 37.56 699.809 36.1867 699.809 35.04V18.8H695.409V14.44ZM702.449 14.44H709.009V18.8H706.769L702.449 14.44ZM712.39 25.52L716.39 21.96L720.39 25.52L716.39 29.08L712.39 25.52ZM716.39 32.32L720.39 35.84L716.35 39.44L712.39 35.84L716.39 32.32ZM737.007 12.72V39.24C737.007 39.7467 737.367 40.3467 738.087 41.04C738.807 41.7333 739.647 42.32 740.607 42.8C741.594 43.3067 742.421 43.56 743.087 43.56C744.021 43.56 744.887 43.08 745.687 42.12L749.767 44.56C749.367 45.0667 748.874 45.4533 748.287 45.72C747.727 46.0133 747.114 46.16 746.447 46.16C745.007 46.16 743.141 45.5867 740.847 44.44C738.581 43.32 736.594 41.9733 734.887 40.4C733.181 38.8267 732.327 37.44 732.327 36.24V8.96L737.007 12.72ZM40.7213 109.44C39.8413 110.48 38.7213 111 37.3613 111C35.7613 111 33.8279 110.413 31.5613 109.24C29.3213 108.093 27.3746 106.733 25.7213 105.16C24.0679 103.56 23.2413 102.187 23.2413 101.04V96.64C22.4679 96.8533 21.8146 96.96 21.2812 96.96C20.5613 96.96 19.7479 96.76 18.8413 96.36C17.9346 95.96 17.0146 95.3867 16.0813 94.64C15.1479 95.8933 14.0146 96.8267 12.6813 97.44C11.3479 98.0533 9.92125 98.3333 8.40125 98.28C10.3746 100.893 12.2279 102.947 13.9613 104.44C15.6946 105.933 17.1213 106.68 18.2413 106.68C19.0413 106.68 19.8146 106.2 20.5613 105.24L23.9213 108.52C23.5213 108.947 23.0013 109.28 22.3613 109.52C21.7213 109.787 21.0546 109.92 20.3613 109.92C18.7346 109.92 16.5079 108.72 13.6813 106.32C10.8813 103.893 8.37458 101.16 6.16125 98.12C3.94792 95.0533 2.84125 92.72 2.84125 91.12C2.84125 90.2667 3.20125 89.5467 3.92125 88.96C4.66792 88.3467 5.52125 88.04 6.48125 88.04C7.44125 88.04 8.37458 88.4533 9.28125 89.28C10.1879 90.1067 10.8946 91.2 11.4013 92.56C11.9879 92.1333 12.4546 91.6 12.8013 90.96C13.1479 90.2933 13.3213 89.6 13.3213 88.88C13.3213 87.4667 12.7079 86.1067 11.4813 84.8H0.72125V80.44H10.2013L14.0813 84.76C14.9879 85.7733 15.7079 86.8533 16.2413 88C16.7746 89.12 17.0546 90.16 17.0813 91.12C17.0813 91.6533 16.9479 92.28 16.6813 93C17.3746 93.4267 18.1213 93.64 18.9213 93.64C19.6146 93.64 20.3346 93.5333 21.0813 93.32C21.8279 93.08 22.5479 92.7467 23.2413 92.32V84.8H16.4013L12.4813 80.44H23.5613L27.9213 84.8V104.12C27.9213 104.627 28.2813 105.227 29.0013 105.92C29.7213 106.587 30.5613 107.173 31.5213 107.68C32.5079 108.16 33.3479 108.4 34.0413 108.4C35.0013 108.4 35.8546 107.92 36.6013 106.96L40.7213 109.44ZM30.2413 84.8L25.8413 80.44H32.4413V84.8H30.2413ZM6.56125 94.52C7.78792 94.52 9.05458 94.16 10.3613 93.44C10.2279 92.9867 9.94792 92.6 9.52125 92.28C9.09458 91.96 8.66792 91.8 8.24125 91.8C7.57458 91.8 6.97458 91.9733 6.44125 92.32C5.90792 92.64 5.64125 93.0133 5.64125 93.44C5.64125 93.7067 5.72125 93.96 5.88125 94.2C6.06792 94.4133 6.29458 94.52 6.56125 94.52ZM52.6272 84.8V104.12C52.6272 104.627 52.9872 105.227 53.7072 105.92C54.4272 106.587 55.2672 107.173 56.2272 107.68C57.2139 108.16 58.0539 108.4 58.7472 108.4C59.7339 108.4 60.5872 107.92 61.3072 106.96L65.3872 109.44C64.5605 110.48 63.4672 111 62.1072 111C60.4539 111 58.5205 110.413 56.3072 109.24C54.1205 108.067 52.2139 106.707 50.5872 105.16C48.9605 103.613 48.1472 102.413 48.1472 101.56V99.92C47.5339 100.533 46.8405 101.013 46.0672 101.36C45.3205 101.707 44.5472 101.88 43.7472 101.88C42.1205 101.88 40.5072 101.427 38.9072 100.52C37.3339 99.5867 36.0405 98.4267 35.0272 97.04C34.0405 95.6267 33.5472 94.28 33.5472 93C33.5472 91.9867 33.8805 91.04 34.5472 90.16C35.2139 89.28 36.0939 88.5733 37.1872 88.04C38.2805 87.5067 39.4272 87.24 40.6272 87.24C41.9872 87.24 43.3072 87.56 44.5872 88.2C45.8939 88.84 47.0139 89.7333 47.9472 90.88V84.8H31.3072V80.44H48.3072L52.6272 84.8ZM57.1472 84.8H54.9072L50.5472 80.44H57.1472V84.8ZM44.3472 90.56C43.2272 90.56 42.1072 90.84 40.9872 91.4C39.8672 91.96 38.9472 92.68 38.2272 93.56C37.5072 94.4133 37.1472 95.28 37.1472 96.16C37.1472 96.8267 37.4405 97.4 38.0272 97.88C38.6139 98.36 39.3072 98.6 40.1072 98.6C41.6272 98.6 43.0939 98.2533 44.5072 97.56C45.9205 96.8667 47.0672 95.8933 47.9472 94.64V92.72C47.4405 92.0533 46.8672 91.5333 46.2272 91.16C45.5872 90.76 44.9605 90.56 44.3472 90.56ZM48.125 67.24C48.9517 67.24 49.8983 67.5733 50.965 68.24C52.0317 68.9067 52.9917 69.7867 53.845 70.88L52.725 71.88C52.165 71.1867 51.485 70.84 50.685 70.84C49.8583 70.84 49.1117 71.2667 48.445 72.12C47.7783 72.9467 47.445 73.8667 47.445 74.88C47.445 75.8667 47.7383 76.8533 48.325 77.84C48.9117 78.8 49.725 79.6667 50.765 80.44H48.125L42.645 75.04C41.3117 73.6267 40.285 72.92 39.565 72.92C39.245 72.92 38.5517 73.08 37.485 73.4C36.5517 73.6933 35.9383 73.84 35.645 73.84C34.7383 73.84 33.7383 73.32 32.645 72.28C31.5517 71.24 30.525 69.8667 29.565 68.16L30.765 67.36C31.0583 67.8933 31.4317 68.32 31.885 68.64C32.3383 68.9333 32.7917 69.08 33.245 69.08C33.5917 69.08 34.0317 69.0133 34.565 68.88C35.0717 68.7467 35.3783 68.6667 35.485 68.64C36.4183 68.3467 37.0983 68.2 37.525 68.2C38.005 68.2 38.565 68.4133 39.205 68.84C39.845 69.2667 40.4983 69.88 41.165 70.68L42.965 72.64V72.48C42.965 71.6 43.205 70.76 43.685 69.96C44.1383 69.16 44.765 68.5067 45.565 68C46.3383 67.4933 47.1917 67.24 48.125 67.24ZM65.2666 81.88C65.2666 81 65.4799 80.1733 65.9066 79.4C66.3599 78.6 66.9599 77.96 67.7066 77.48C68.4532 76.9733 69.2399 76.72 70.0666 76.72C71.1332 76.72 72.3466 77.1733 73.7066 78.08C75.0666 78.9867 76.2266 80.0933 77.1866 81.4C78.1732 82.68 78.6666 83.84 78.6666 84.88V92.92H86.1866V84.8H82.1866L79.0666 80.44H86.5066L90.8666 84.8V104.12C90.8666 104.627 91.2266 105.227 91.9466 105.92C92.6932 106.587 93.5732 107.173 94.5866 107.68C95.5999 108.16 96.4532 108.4 97.1466 108.4C98.1332 108.4 98.9332 107.933 99.5466 107L103.627 109.44C102.72 110.48 101.613 111 100.307 111C98.7066 111 96.7732 110.427 94.5066 109.28C92.2666 108.16 90.3199 106.84 88.6666 105.32C87.0132 103.773 86.1866 102.453 86.1866 101.36V97H78.6666V100.2C78.6666 100.467 78.5732 100.693 78.3866 100.88C78.1999 101.067 77.9732 101.16 77.7066 101.16C77.0399 101.16 76.0666 100.693 74.7866 99.76C73.5332 98.8267 72.3999 97.7733 71.3866 96.6C70.3732 95.4267 69.8666 94.52 69.8666 93.88C69.8666 93.5867 69.9732 93.36 70.1866 93.2C70.3999 93.0133 70.6799 92.92 71.0266 92.92H73.9866V81.6C73.9866 81.1733 73.8666 80.8133 73.6266 80.52C73.3866 80.2 73.0799 80.04 72.7066 80.04C72.2532 80.04 71.7732 80.2533 71.2666 80.68C70.7599 81.08 70.3332 81.6 69.9866 82.24C69.6666 82.88 69.5066 83.48 69.5066 84.04C69.5066 84.6 69.8266 85.2 70.4666 85.84C71.1332 86.48 71.9866 87.04 73.0266 87.52L72.3066 88.84C70.1999 87.9867 68.4932 86.9333 67.1866 85.68C65.9066 84.4 65.2666 83.1333 65.2666 81.88ZM88.7866 80.44H95.3866V84.8H93.1866L88.7866 80.44ZM122.916 111.04C122.543 111.44 122.076 111.747 121.516 111.96C120.956 112.2 120.369 112.32 119.756 112.32C118.556 112.32 117.196 111.693 115.676 110.44C114.156 109.187 112.676 107.48 111.236 105.32L102.796 112.8C101.623 113.813 100.729 114.32 100.116 114.32C99.5026 114.32 98.7826 114.067 97.9559 113.56C97.1559 113.053 96.3293 112.347 95.4759 111.44L96.3159 110.36C96.4759 110.573 96.6759 110.733 96.9159 110.84C97.1826 110.973 97.4493 111.04 97.7159 111.04C98.2493 111.04 98.8359 110.787 99.4759 110.28L105.796 105.12C104.116 104.747 102.569 104.04 101.156 103C99.7693 101.933 98.6626 100.68 97.8359 99.24C97.0359 97.8 96.6359 96.32 96.6359 94.8C96.6359 93.68 97.1559 92.64 98.1959 91.68C99.2359 90.72 100.543 90.1067 102.116 89.84L109.196 88.64C109.729 88.5067 110.143 88.3067 110.436 88.04C110.756 87.7467 110.916 87.4 110.916 87C110.916 86.68 110.796 86.32 110.556 85.92C110.343 85.4933 110.036 85.12 109.636 84.8H94.2759V80.44H107.916L111.916 84.76C112.583 85.48 113.076 86.2533 113.396 87.08C113.743 87.88 113.916 88.64 113.916 89.36C113.916 90.24 113.623 90.9867 113.036 91.6C112.449 92.2133 111.636 92.6267 110.596 92.84L104.396 94.08C103.116 94.3467 102.049 94.8667 101.196 95.64C100.369 96.3867 99.9559 97.2133 99.9559 98.12C99.9559 99.1867 100.409 100.093 101.316 100.84C102.223 101.587 103.316 101.96 104.596 101.96C106.383 101.96 107.983 101.547 109.396 100.72C108.916 100 108.676 99.1867 108.676 98.28C108.676 97.72 108.889 97.24 109.316 96.84C109.743 96.44 110.276 96.24 110.916 96.24C111.796 96.24 112.623 96.44 113.396 96.84C114.169 97.24 114.783 97.7867 115.236 98.48C115.716 99.1467 115.956 99.8667 115.956 100.64C115.956 101.413 115.649 102.16 115.036 102.88C114.449 103.6 113.676 104.16 112.716 104.56C113.436 105.867 114.209 106.92 115.036 107.72C115.889 108.493 116.636 108.88 117.276 108.88C117.836 108.88 118.489 108.533 119.236 107.84L122.916 111.04ZM114.196 84.8L110.236 80.44H118.276V84.8H114.196ZM117.167 80.44H121.887L126.247 84.8V104.12C126.247 104.627 126.607 105.227 127.327 105.92C128.047 106.587 128.887 107.173 129.847 107.68C130.833 108.16 131.673 108.4 132.367 108.4C133.327 108.4 134.167 107.92 134.887 106.96L139.007 109.44C138.607 109.947 138.113 110.333 137.527 110.6C136.967 110.867 136.353 111 135.687 111C134.087 111 132.153 110.413 129.887 109.24C127.647 108.093 125.7 106.733 124.047 105.16C122.393 103.56 121.567 102.187 121.567 101.04V84.8H117.167V80.44ZM124.207 80.44H130.767V84.8H128.527L124.207 80.44ZM130.588 73.8C130.588 72.4933 131.014 71.3067 131.868 70.24C132.721 69.1733 133.921 68.3333 135.467 67.72C137.014 67.08 138.814 66.76 140.868 66.76C143.774 66.76 146.441 67.0933 148.868 67.76C151.294 68.4 153.374 69.1733 155.108 70.08C156.841 70.96 158.788 72.08 160.948 73.44C162.814 74.5867 164.241 75.4133 165.228 75.92C166.241 76.4 167.228 76.64 168.188 76.64C168.801 76.64 169.281 76.4933 169.628 76.2C170.001 75.9067 170.294 75.48 170.508 74.92L174.668 77.6C174.241 78.32 173.681 78.88 172.988 79.28C172.294 79.68 171.534 79.88 170.708 79.88C169.188 79.88 167.748 79.5733 166.388 78.96C165.028 78.32 163.348 77.3333 161.348 76C159.428 74.7467 157.721 73.7333 156.228 72.96C154.761 72.16 153.014 71.48 150.988 70.92C148.988 70.36 146.774 70.08 144.348 70.08C142.481 70.08 140.801 70.3733 139.308 70.96C137.814 71.5467 136.641 72.3333 135.788 73.32C134.934 74.3067 134.508 75.3867 134.508 76.56C134.508 78 135.148 79.2933 136.428 80.44H134.668C133.414 79.5867 132.414 78.56 131.668 77.36C130.948 76.1333 130.588 74.9467 130.588 73.8ZM129.627 80.44H134.348L138.708 84.8V104.12C138.708 104.627 139.068 105.227 139.788 105.92C140.508 106.587 141.348 107.173 142.308 107.68C143.294 108.16 144.134 108.4 144.828 108.4C145.788 108.4 146.628 107.92 147.348 106.96L151.468 109.44C151.068 109.947 150.574 110.333 149.988 110.6C149.428 110.867 148.814 111 148.148 111C146.548 111 144.614 110.413 142.348 109.24C140.108 108.093 138.161 106.733 136.508 105.16C134.854 103.56 134.028 102.187 134.028 101.04V84.8H129.627V80.44ZM136.668 80.44H143.228V84.8H140.988L136.668 80.44ZM157.248 84.8C159.328 87.9733 160.368 90.92 160.368 93.64C160.368 94.8133 160.102 95.96 159.568 97.08C159.035 98.1733 158.328 99.0667 157.448 99.76C156.568 100.453 155.662 100.8 154.728 100.8C153.448 100.8 152.008 100.253 150.408 99.16C148.835 98.0667 147.488 96.76 146.368 95.24C145.248 93.72 144.688 92.4133 144.688 91.32C144.688 88.8933 145.022 86.72 145.688 84.8H142.088V80.44H166.568L170.928 84.8V104.12C170.928 104.627 171.288 105.227 172.008 105.92C172.755 106.587 173.635 107.173 174.648 107.68C175.662 108.16 176.515 108.4 177.208 108.4C177.662 108.4 178.102 108.28 178.528 108.04C178.955 107.8 179.315 107.453 179.608 107L183.688 109.44C182.782 110.48 181.675 111 180.368 111C178.768 111 176.835 110.427 174.568 109.28C172.328 108.16 170.382 106.84 168.728 105.32C167.075 103.773 166.248 102.453 166.248 101.36V84.8H157.248ZM168.888 80.44H175.448V84.8H173.208L168.888 80.44ZM151.808 97.48C152.528 97.48 153.248 97.1067 153.968 96.36C154.688 95.6133 155.288 94.68 155.768 93.56C156.248 92.4133 156.488 91.3067 156.488 90.24C156.488 88.32 155.888 86.5067 154.688 84.8H150.768C149.675 87.4667 149.128 90.7067 149.128 94.52C149.128 95.2133 149.408 95.88 149.968 96.52C150.528 97.16 151.142 97.48 151.808 97.48ZM183.104 80.44H200.024L204.344 84.8V104.12C204.344 104.627 204.704 105.227 205.424 105.92C206.171 106.587 207.051 107.173 208.064 107.68C209.077 108.16 209.931 108.4 210.624 108.4C211.077 108.4 211.517 108.28 211.944 108.04C212.371 107.8 212.731 107.453 213.024 107L217.144 109.44C216.184 110.48 215.064 111 213.784 111C212.184 111 210.251 110.427 207.984 109.28C205.744 108.16 203.797 106.84 202.144 105.32C200.491 103.773 199.664 102.453 199.664 101.36V98.2C199.104 98.76 198.491 99.2 197.824 99.52C197.184 99.8133 196.557 99.96 195.944 99.96C194.664 99.96 193.224 99.5067 191.624 98.6C190.024 97.6933 188.664 96.6133 187.544 95.36C186.424 94.08 185.864 92.9867 185.864 92.08V84.8H183.104V80.44ZM202.464 80.44H208.864V84.8H206.664L202.464 80.44ZM192.904 97.08C193.971 97.08 195.104 96.6667 196.304 95.84C197.504 94.9867 198.624 93.8133 199.664 92.32V84.8H190.504V94.88C190.504 95.4933 190.731 96.0133 191.184 96.44C191.664 96.8667 192.237 97.08 192.904 97.08ZM215.872 79.44C217.338 79.44 218.778 79.9867 220.192 81.08C221.605 82.1733 222.752 83.5733 223.632 85.28C224.538 86.9867 224.992 88.7067 224.992 90.44C224.992 92.5733 224.432 94.5867 223.312 96.48C222.192 98.3733 220.725 99.8267 218.912 100.84L221.952 104.64C222.698 105.547 223.472 106.28 224.272 106.84C225.098 107.373 225.805 107.64 226.392 107.64C227.058 107.64 227.725 107.307 228.392 106.64L231.672 110.08C230.952 110.8 229.992 111.16 228.792 111.16C227.725 111.16 226.592 110.773 225.392 110C224.192 109.253 223.005 108.147 221.832 106.68L217.512 101.6C216.898 101.84 216.352 101.96 215.872 101.96C214.992 101.96 214.138 101.72 213.312 101.24C212.485 100.76 211.805 100.12 211.272 99.32C210.765 98.52 210.512 97.68 210.512 96.8C210.512 96.1333 210.725 95.5867 211.152 95.16C211.578 94.7067 212.098 94.48 212.712 94.48C213.938 94.48 215.218 95.28 216.552 96.88C217.512 96.4 218.352 95.6267 219.072 94.56C219.792 93.4933 220.298 92.2667 220.592 90.88L220.392 90.8C220.018 91.28 219.578 91.6667 219.072 91.96C218.592 92.2533 218.098 92.4 217.592 92.4C216.525 92.4 215.405 92.0267 214.232 91.28C213.058 90.5067 212.085 89.56 211.312 88.44C210.538 87.32 210.152 86.2533 210.152 85.24C210.152 84.2533 210.418 83.32 210.952 82.44C211.485 81.5333 212.192 80.8133 213.072 80.28C213.952 79.72 214.885 79.44 215.872 79.44ZM227.792 84.8H225.912L222.752 80.44H227.792V84.8ZM218.832 82.6C218.032 82.6 217.232 82.88 216.432 83.44C215.658 83.9733 215.032 84.6667 214.552 85.52C214.072 86.3467 213.832 87.16 213.832 87.96C213.832 88.3333 214.005 88.7067 214.352 89.08C214.725 89.4533 215.098 89.64 215.472 89.64C216.218 89.64 216.965 89.3867 217.712 88.88C218.485 88.3467 219.112 87.68 219.592 86.88C220.098 86.08 220.352 85.28 220.352 84.48C220.352 84.08 220.192 83.6667 219.872 83.24C219.552 82.8133 219.205 82.6 218.832 82.6ZM249.619 84.8V104.12C249.619 104.627 249.992 105.227 250.739 105.92C251.485 106.587 252.352 107.173 253.339 107.68C254.352 108.16 255.205 108.4 255.899 108.4C256.885 108.4 257.685 107.933 258.299 107L262.379 109.44C261.472 110.48 260.379 111 259.099 111C257.499 111 255.565 110.427 253.299 109.28C251.059 108.16 249.099 106.84 247.419 105.32C245.765 103.773 244.939 102.453 244.939 101.36V99.24C244.192 99.9333 243.352 100.467 242.419 100.84C241.512 101.213 240.592 101.4 239.659 101.4C237.979 101.4 236.365 100.92 234.819 99.96C233.272 98.9733 231.925 97.6267 230.779 95.92C229.632 94.1867 228.805 92.2533 228.299 90.12L228.979 89.68C229.619 90 230.405 90.16 231.339 90.16C232.165 90.16 232.979 90.0133 233.779 89.72C234.579 89.4267 235.232 89.0267 235.739 88.52C236.245 88.0133 236.499 87.4667 236.499 86.88C236.499 86.2933 236.325 85.8 235.979 85.4C235.659 85 235.205 84.8 234.619 84.8H226.659V80.44H233.059L237.259 84.8C238.432 86.08 239.019 87.68 239.019 89.6C239.019 91.04 238.365 92.2 237.059 93.08C235.752 93.9333 233.992 94.36 231.779 94.36C232.152 95.3467 232.792 96.16 233.699 96.8C234.605 97.44 235.632 97.76 236.779 97.76C238.352 97.76 239.859 97.36 241.299 96.56C242.739 95.76 243.952 94.6667 244.939 93.28V84.8H239.539L235.379 80.44H245.299L249.619 84.8ZM254.179 84.8H251.939L247.579 80.44H254.179V84.8ZM272.466 84.8H253.026V80.44H272.466V84.8ZM263.066 88.52C264.773 88.52 266.479 88.9733 268.186 89.88C269.893 90.76 271.493 92.0133 272.986 93.64V95.76C270.879 93.7867 268.599 92.8 266.146 92.8C265.239 92.8 264.599 92.8933 264.226 93.08C265.719 94.2267 266.893 95.4267 267.746 96.68C268.599 97.9067 269.026 99.04 269.026 100.08C269.026 101.2 268.586 102.147 267.706 102.92C266.853 103.693 265.853 104.08 264.706 104.08C263.239 104.08 261.773 103.573 260.306 102.56C258.839 101.52 257.639 100.253 256.706 98.76C255.773 97.24 255.306 95.8 255.306 94.44C255.306 93.4 255.653 92.4267 256.346 91.52C257.066 90.6133 258.026 89.8933 259.226 89.36C260.426 88.8 261.706 88.52 263.066 88.52ZM262.786 93.6C261.533 94.0267 260.519 94.64 259.746 95.44C258.999 96.2133 258.626 97.0267 258.626 97.88C258.626 98.4933 258.893 99.0667 259.426 99.6C259.986 100.133 260.573 100.4 261.186 100.4C262.226 100.4 263.133 100.08 263.906 99.44C264.706 98.8 265.106 98.0267 265.106 97.12C265.106 96.6133 264.893 96.0533 264.466 95.44C264.066 94.8 263.506 94.1867 262.786 93.6ZM271.346 80.44H291.306L295.666 84.8V104.12C295.666 104.627 296.026 105.227 296.746 105.92C297.466 106.587 298.306 107.173 299.266 107.68C300.253 108.16 301.08 108.4 301.746 108.4C302.76 108.4 303.626 107.92 304.346 106.96L308.386 109.44C307.56 110.48 306.453 111 305.066 111C303.546 111 301.653 110.427 299.386 109.28C297.12 108.133 295.146 106.773 293.466 105.2C291.813 103.6 290.986 102.213 290.986 101.04V94.24C290.266 93.6533 289.493 93.2 288.666 92.88C287.84 92.56 287.04 92.4 286.266 92.4C284.746 92.4 283.333 92.7333 282.026 93.4C280.746 94.0667 279.733 94.9867 278.986 96.16C278.24 97.3067 277.866 98.5867 277.866 100C277.866 100.96 278.16 101.987 278.746 103.08C279.333 104.147 280.08 105.04 280.986 105.76C281.893 106.48 282.76 106.84 283.586 106.84C284.466 106.84 285.173 106.52 285.706 105.88L289.066 108.96C288.8 109.28 288.4 109.52 287.866 109.68C287.333 109.867 286.746 109.96 286.106 109.96C284.24 109.96 282.373 109.24 280.506 107.8C278.64 106.333 277.093 104.52 275.866 102.36C274.666 100.2 274.066 98.1467 274.066 96.2C274.066 94.8133 274.44 93.5467 275.186 92.4C275.933 91.2267 276.92 90.3067 278.146 89.64C279.4 88.9467 280.746 88.6 282.186 88.6C284.96 88.6 287.893 89.72 290.986 91.96V84.8H271.346V80.44ZM293.586 80.44H300.186V84.8H297.946L293.586 80.44ZM279.352 116.08C281.086 117.92 283.046 119.373 285.232 120.44C287.392 121.533 289.579 122.08 291.792 122.08C292.992 122.08 294.166 121.813 295.312 121.28C296.459 120.747 297.406 120.067 298.152 119.24C298.872 118.413 299.232 117.573 299.232 116.72C299.232 115.92 298.926 115.24 298.312 114.68C297.672 114.12 296.912 113.84 296.032 113.84C295.392 113.84 294.739 113.973 294.072 114.24C293.379 114.533 292.819 114.893 292.392 115.32C291.939 115.747 291.712 116.173 291.712 116.6C291.712 116.893 291.832 117.133 292.072 117.32C292.286 117.533 292.552 117.64 292.872 117.64C293.406 117.64 294.126 117.08 295.032 115.96L297.712 117.6C297.232 118.133 296.712 118.547 296.152 118.84C295.566 119.16 294.979 119.32 294.392 119.32C293.379 119.32 292.339 119.093 291.272 118.64C290.179 118.213 289.286 117.667 288.592 117C287.872 116.333 287.512 115.667 287.512 115C287.512 114.28 287.779 113.587 288.312 112.92C288.846 112.28 289.566 111.76 290.472 111.36C291.352 110.96 292.299 110.76 293.312 110.76C294.832 110.76 296.379 111.173 297.952 112C299.526 112.827 300.819 113.867 301.832 115.12C302.872 116.373 303.392 117.573 303.392 118.72C303.392 119.787 303.006 120.787 302.232 121.72C301.459 122.68 300.446 123.44 299.192 124C297.912 124.56 296.592 124.84 295.232 124.84C288.912 124.84 283.179 122.373 278.032 117.44L279.352 116.08ZM312.281 78.72V105.24C312.281 105.747 312.641 106.347 313.361 107.04C314.081 107.733 314.921 108.32 315.881 108.8C316.867 109.307 317.694 109.56 318.361 109.56C319.294 109.56 320.161 109.08 320.961 108.12L325.041 110.56C324.641 111.067 324.147 111.453 323.561 111.72C323.001 112.013 322.387 112.16 321.721 112.16C320.281 112.16 318.414 111.587 316.121 110.44C313.854 109.32 311.867 107.973 310.161 106.4C308.454 104.827 307.601 103.44 307.601 102.24V74.96L312.281 78.72ZM359.529 84.8V104.12C359.529 104.627 359.889 105.227 360.609 105.92C361.356 106.587 362.223 107.173 363.209 107.68C364.223 108.16 365.076 108.4 365.769 108.4C366.756 108.4 367.569 107.933 368.209 107L372.289 109.44C371.836 109.947 371.316 110.333 370.729 110.6C370.169 110.867 369.569 111 368.929 111C367.356 111 365.436 110.427 363.169 109.28C360.929 108.16 358.983 106.84 357.329 105.32C355.676 103.773 354.849 102.453 354.849 101.36V96.64H347.209V99.72C347.209 100.013 347.116 100.253 346.929 100.44C346.743 100.627 346.503 100.72 346.209 100.72C345.623 100.72 344.703 100.24 343.449 99.28C342.196 98.32 341.063 97.2533 340.049 96.08C339.036 94.9067 338.529 94.0267 338.529 93.44C338.529 93.1733 338.649 92.9467 338.889 92.76C339.129 92.5733 339.436 92.48 339.809 92.48H342.529V84.8H337.049V80.44H355.129L359.529 84.8ZM364.009 84.8H361.809L357.449 80.44H364.009V84.8ZM347.209 84.8V92.48H354.849V84.8H347.209ZM362.948 80.44H367.668L372.028 84.8V104.12C372.028 104.627 372.388 105.227 373.108 105.92C373.828 106.587 374.668 107.173 375.628 107.68C376.614 108.16 377.454 108.4 378.148 108.4C379.108 108.4 379.948 107.92 380.668 106.96L384.788 109.44C384.388 109.947 383.894 110.333 383.308 110.6C382.748 110.867 382.134 111 381.468 111C379.868 111 377.934 110.413 375.668 109.24C373.428 108.093 371.481 106.733 369.828 105.16C368.174 103.56 367.348 102.187 367.348 101.04V84.8H362.948V80.44ZM369.988 80.44H376.548V84.8H374.308L369.988 80.44ZM402.843 84.8V89.8C403.483 89.1333 404.149 88.6 404.843 88.2C405.536 87.7733 406.176 87.56 406.763 87.56C407.803 87.56 408.909 87.9867 410.083 88.84C411.283 89.6933 412.283 90.7467 413.083 92C413.883 93.2533 414.283 94.4133 414.283 95.48C414.283 96.44 413.976 97.36 413.363 98.24C412.776 99.12 411.989 99.8533 411.003 100.44C410.043 101.027 409.016 101.373 407.923 101.48L405.243 97.96C406.843 97.6933 408.176 97.0667 409.243 96.08C410.336 95.0667 410.883 93.96 410.883 92.76C410.883 92.28 410.709 91.8533 410.363 91.48C410.043 91.08 409.656 90.88 409.203 90.88C408.243 90.88 407.216 91.2533 406.123 92C405.029 92.7467 403.936 93.8 402.843 95.16V104.12C402.843 104.627 403.216 105.227 403.963 105.92C404.709 106.587 405.576 107.173 406.563 107.68C407.576 108.16 408.429 108.4 409.123 108.4C410.056 108.4 410.856 107.933 411.523 107L415.603 109.44C415.176 109.947 414.669 110.333 414.083 110.6C413.523 110.867 412.923 111 412.283 111C410.709 111 408.789 110.427 406.523 109.28C404.283 108.133 402.323 106.8 400.643 105.28C398.989 103.733 398.163 102.427 398.163 101.36V98.56C397.549 99.1733 396.869 99.6533 396.123 100C395.376 100.347 394.629 100.52 393.883 100.52C392.763 100.52 391.576 100.12 390.323 99.32C389.069 98.52 388.016 97.52 387.163 96.32C386.309 95.12 385.882 93.9467 385.882 92.8C385.882 91.8667 386.189 91 386.803 90.2C387.416 89.3733 388.229 88.72 389.243 88.24C390.283 87.7333 391.363 87.48 392.483 87.48H394.523C394.869 87.48 395.256 87.7067 395.683 88.16C396.136 88.6133 396.683 89.28 397.323 90.16L396.923 91.12C396.363 90.8267 395.843 90.68 395.363 90.68C394.456 90.68 393.536 90.92 392.603 91.4C391.669 91.8533 390.896 92.4667 390.283 93.24C389.669 94.0133 389.363 94.8 389.363 95.6C389.363 96.0533 389.549 96.44 389.923 96.76C390.323 97.0533 390.803 97.2 391.363 97.2C392.483 97.2 393.643 96.8267 394.842 96.08C396.069 95.3333 397.176 94.2933 398.163 92.96V84.8H384.002V80.44H398.563L402.843 84.8ZM416.283 84.8H405.163L400.883 80.44H416.283V84.8ZM416.173 73.8C416.173 72.4933 416.6 71.3067 417.453 70.24C418.307 69.1733 419.507 68.3333 421.053 67.72C422.6 67.08 424.4 66.76 426.453 66.76C429.36 66.76 432.027 67.0933 434.453 67.76C436.88 68.4 438.96 69.1733 440.693 70.08C442.427 70.96 444.373 72.08 446.533 73.44C448.4 74.5867 449.827 75.4133 450.813 75.92C451.827 76.4 452.813 76.64 453.773 76.64C454.387 76.64 454.867 76.4933 455.213 76.2C455.587 75.9067 455.88 75.48 456.093 74.92L460.253 77.6C459.827 78.32 459.267 78.88 458.573 79.28C457.88 79.68 457.12 79.88 456.293 79.88C454.773 79.88 453.333 79.5733 451.973 78.96C450.613 78.32 448.933 77.3333 446.933 76C445.013 74.7467 443.307 73.7333 441.813 72.96C440.347 72.16 438.6 71.48 436.573 70.92C434.573 70.36 432.36 70.08 429.933 70.08C428.067 70.08 426.387 70.3733 424.893 70.96C423.4 71.5467 422.227 72.3333 421.373 73.32C420.52 74.3067 420.093 75.3867 420.093 76.56C420.093 78 420.733 79.2933 422.013 80.44H420.253C419 79.5867 418 78.56 417.253 77.36C416.533 76.1333 416.173 74.9467 416.173 73.8ZM415.213 80.44H419.933L424.293 84.8V104.12C424.293 104.627 424.653 105.227 425.373 105.92C426.093 106.587 426.933 107.173 427.893 107.68C428.88 108.16 429.72 108.4 430.413 108.4C431.373 108.4 432.213 107.92 432.933 106.96L437.053 109.44C436.653 109.947 436.16 110.333 435.573 110.6C435.013 110.867 434.4 111 433.733 111C432.133 111 430.2 110.413 427.933 109.24C425.693 108.093 423.747 106.733 422.093 105.16C420.44 103.56 419.613 102.187 419.613 101.04V84.8H415.213V80.44ZM422.253 80.44H428.813V84.8H426.573L422.253 80.44ZM435.754 79.44C437.221 79.44 438.661 79.9867 440.074 81.08C441.488 82.1733 442.634 83.5733 443.514 85.28C444.421 86.9867 444.874 88.7067 444.874 90.44C444.874 92.5733 444.314 94.5867 443.194 96.48C442.074 98.3733 440.608 99.8267 438.794 100.84L441.834 104.64C442.581 105.547 443.354 106.28 444.154 106.84C444.981 107.373 445.688 107.64 446.274 107.64C446.941 107.64 447.608 107.307 448.274 106.64L451.554 110.08C450.834 110.8 449.874 111.16 448.674 111.16C447.608 111.16 446.474 110.773 445.274 110C444.074 109.253 442.888 108.147 441.714 106.68L437.394 101.6C436.781 101.84 436.234 101.96 435.754 101.96C434.874 101.96 434.021 101.72 433.194 101.24C432.368 100.76 431.688 100.12 431.154 99.32C430.648 98.52 430.394 97.68 430.394 96.8C430.394 96.1333 430.608 95.5867 431.034 95.16C431.461 94.7067 431.981 94.48 432.594 94.48C433.821 94.48 435.101 95.28 436.434 96.88C437.394 96.4 438.234 95.6267 438.954 94.56C439.674 93.4933 440.181 92.2667 440.474 90.88L440.274 90.8C439.901 91.28 439.461 91.6667 438.954 91.96C438.474 92.2533 437.981 92.4 437.474 92.4C436.408 92.4 435.288 92.0267 434.114 91.28C432.941 90.5067 431.968 89.56 431.194 88.44C430.421 87.32 430.034 86.2533 430.034 85.24C430.034 84.2533 430.301 83.32 430.834 82.44C431.368 81.5333 432.074 80.8133 432.954 80.28C433.834 79.72 434.768 79.44 435.754 79.44ZM447.674 84.8H445.794L442.634 80.44H447.674V84.8ZM438.714 82.6C437.914 82.6 437.114 82.88 436.314 83.44C435.541 83.9733 434.914 84.6667 434.434 85.52C433.954 86.3467 433.714 87.16 433.714 87.96C433.714 88.3333 433.888 88.7067 434.234 89.08C434.608 89.4533 434.981 89.64 435.354 89.64C436.101 89.64 436.848 89.3867 437.594 88.88C438.368 88.3467 438.994 87.68 439.474 86.88C439.981 86.08 440.234 85.28 440.234 84.48C440.234 84.08 440.074 83.6667 439.754 83.24C439.434 82.8133 439.088 82.6 438.714 82.6ZM446.542 80.44H468.462L472.822 84.8V104.12C472.822 104.627 473.182 105.227 473.902 105.92C474.648 106.587 475.515 107.173 476.502 107.68C477.515 108.16 478.368 108.4 479.062 108.4C479.995 108.4 480.808 107.933 481.502 107L485.542 109.44C485.115 109.947 484.608 110.333 484.022 110.6C483.462 110.867 482.862 111 482.222 111C480.648 111 478.755 110.453 476.542 109.36C474.328 108.267 472.395 107 470.742 105.56C469.115 104.093 468.302 102.893 468.302 101.96V100.12C467.528 100.867 466.662 101.467 465.702 101.92C464.742 102.347 463.795 102.56 462.862 102.56C461.582 102.56 460.222 102.187 458.782 101.44C457.342 100.667 456.128 99.7467 455.142 98.68C454.182 97.5867 453.702 96.6267 453.702 95.8C453.702 95.16 453.902 94.5333 454.302 93.92C454.728 93.3067 455.302 92.7867 456.022 92.36H450.342L447.622 88.72H461.622L464.462 92.28C463.208 92.4933 462.062 92.88 461.022 93.44C460.008 93.9733 459.195 94.6133 458.582 95.36C457.968 96.1067 457.662 96.88 457.662 97.68C457.662 98.16 457.848 98.5867 458.222 98.96C458.622 99.3067 459.075 99.48 459.582 99.48C460.942 99.48 462.368 99.04 463.862 98.16C465.382 97.28 466.808 96.04 468.142 94.44V84.8H446.542V80.44ZM470.742 80.44H477.342V84.8H475.062L470.742 80.44ZM476.229 80.44H496.189L500.549 84.8V104.12C500.549 104.627 500.909 105.227 501.629 105.92C502.349 106.587 503.189 107.173 504.149 107.68C505.136 108.16 505.962 108.4 506.629 108.4C507.642 108.4 508.509 107.92 509.229 106.96L513.269 109.44C512.442 110.48 511.336 111 509.949 111C508.429 111 506.536 110.427 504.269 109.28C502.002 108.133 500.029 106.773 498.349 105.2C496.696 103.6 495.869 102.213 495.869 101.04V94.24C495.149 93.6533 494.376 93.2 493.549 92.88C492.722 92.56 491.922 92.4 491.149 92.4C489.629 92.4 488.216 92.7333 486.909 93.4C485.629 94.0667 484.616 94.9867 483.869 96.16C483.122 97.3067 482.749 98.5867 482.749 100C482.749 100.96 483.042 101.987 483.629 103.08C484.216 104.147 484.962 105.04 485.869 105.76C486.776 106.48 487.642 106.84 488.469 106.84C489.349 106.84 490.056 106.52 490.589 105.88L493.949 108.96C493.682 109.28 493.282 109.52 492.749 109.68C492.216 109.867 491.629 109.96 490.989 109.96C489.122 109.96 487.256 109.24 485.389 107.8C483.522 106.333 481.976 104.52 480.749 102.36C479.549 100.2 478.949 98.1467 478.949 96.2C478.949 94.8133 479.322 93.5467 480.069 92.4C480.816 91.2267 481.802 90.3067 483.029 89.64C484.282 88.9467 485.629 88.6 487.069 88.6C489.842 88.6 492.776 89.72 495.869 91.96V84.8H476.229V80.44ZM498.469 80.44H505.069V84.8H502.829L498.469 80.44ZM507.635 121.6C505.528 119.253 503.662 117.467 502.035 116.24C500.408 115.013 499.128 114.4 498.195 114.4C496.835 114.4 495.115 114.64 493.035 115.12L490.475 111.2C492.368 110.907 493.995 110.76 495.355 110.76C496.315 110.76 497.328 111.027 498.395 111.56C499.462 112.12 500.515 112.867 501.555 113.8L509.035 120.64L507.635 121.6ZM512.557 80.44H526.197L530.197 84.76C530.864 85.48 531.357 86.2533 531.677 87.08C532.024 87.88 532.197 88.64 532.197 89.36C532.197 90.24 531.904 90.9867 531.317 91.6C530.731 92.2133 529.917 92.6267 528.877 92.84L522.677 94.08C521.397 94.3467 520.331 94.8667 519.477 95.64C518.651 96.3867 518.237 97.2133 518.237 98.12C518.237 99.1867 518.691 100.093 519.597 100.84C520.504 101.587 521.597 101.96 522.877 101.96C524.664 101.96 526.264 101.547 527.677 100.72C527.197 100 526.957 99.1867 526.957 98.28C526.957 97.72 527.171 97.24 527.597 96.84C528.024 96.44 528.557 96.24 529.197 96.24C530.077 96.24 530.904 96.44 531.677 96.84C532.451 97.24 533.064 97.7867 533.517 98.48C533.997 99.1467 534.237 99.8667 534.237 100.64C534.237 101.413 533.931 102.16 533.317 102.88C532.731 103.6 531.957 104.16 530.997 104.56C531.717 105.867 532.491 106.92 533.317 107.72C534.171 108.493 534.917 108.88 535.557 108.88C536.117 108.88 536.771 108.533 537.517 107.84L541.197 111.04C540.824 111.44 540.357 111.747 539.797 111.96C539.237 112.2 538.651 112.32 538.037 112.32C536.811 112.32 535.424 111.667 533.877 110.36C532.331 109.08 530.824 107.32 529.357 105.08C528.637 105.32 527.744 105.44 526.677 105.44C524.651 105.44 522.731 104.933 520.917 103.92C519.104 102.907 517.651 101.587 516.557 99.96C515.464 98.3067 514.917 96.5867 514.917 94.8C514.917 93.68 515.437 92.64 516.477 91.68C517.517 90.72 518.824 90.1067 520.397 89.84L527.477 88.64C528.011 88.5067 528.424 88.3067 528.717 88.04C529.037 87.7467 529.197 87.4 529.197 87C529.197 86.68 529.077 86.32 528.837 85.92C528.624 85.4933 528.317 85.12 527.917 84.8H512.557V80.44ZM528.517 80.44H536.557V84.8H532.477L528.517 80.44ZM520.29 118.08C522.023 119.92 523.983 121.373 526.17 122.44C528.33 123.533 530.516 124.08 532.73 124.08C533.93 124.08 535.103 123.813 536.25 123.28C537.396 122.747 538.343 122.067 539.09 121.24C539.81 120.413 540.17 119.573 540.17 118.72C540.17 117.92 539.863 117.24 539.25 116.68C538.61 116.12 537.85 115.84 536.97 115.84C536.33 115.84 535.676 115.973 535.01 116.24C534.316 116.533 533.756 116.893 533.33 117.32C532.876 117.747 532.65 118.173 532.65 118.6C532.65 118.893 532.77 119.133 533.01 119.32C533.223 119.533 533.49 119.64 533.81 119.64C534.343 119.64 535.063 119.08 535.97 117.96L538.65 119.6C538.17 120.133 537.65 120.547 537.09 120.84C536.503 121.16 535.916 121.32 535.33 121.32C534.316 121.32 533.276 121.093 532.21 120.64C531.116 120.213 530.223 119.667 529.53 119C528.81 118.333 528.45 117.667 528.45 117C528.45 116.28 528.716 115.587 529.25 114.92C529.783 114.28 530.503 113.76 531.41 113.36C532.29 112.96 533.236 112.76 534.25 112.76C535.77 112.76 537.316 113.173 538.89 114C540.463 114.827 541.756 115.867 542.77 117.12C543.81 118.373 544.33 119.573 544.33 120.72C544.33 121.787 543.943 122.787 543.17 123.72C542.396 124.68 541.383 125.44 540.13 126C538.85 126.56 537.53 126.84 536.17 126.84C529.85 126.84 524.116 124.373 518.97 119.44L520.29 118.08ZM539.968 91.52L543.968 87.96L547.968 91.52L543.968 95.08L539.968 91.52ZM543.968 98.32L547.968 101.84L543.928 105.44L539.968 101.84L543.968 98.32ZM586.945 84.8V104.12C586.945 104.627 587.305 105.227 588.025 105.92C588.772 106.587 589.639 107.173 590.625 107.68C591.639 108.16 592.492 108.4 593.185 108.4C594.119 108.4 594.932 107.933 595.625 107L599.665 109.44C598.759 110.48 597.639 111 596.305 111C594.492 111 592.465 110.44 590.225 109.32C588.012 108.2 585.839 106.627 583.705 104.6C582.585 105.827 581.332 106.773 579.945 107.44C578.585 108.107 577.199 108.44 575.785 108.44C571.892 108.44 567.319 106.48 562.065 102.56C559.265 100.507 557.105 98.6 555.585 96.84C554.092 95.0533 553.345 93.5333 553.345 92.28C553.345 91.4 553.705 90.64 554.425 90C555.172 89.36 556.039 89.04 557.025 89.04C557.745 89.04 558.532 89.3733 559.385 90.04C560.239 90.7067 561.065 91.6267 561.865 92.8C562.345 92.4267 562.719 91.92 562.985 91.28C563.279 90.6133 563.425 89.9067 563.425 89.16C563.425 87.5067 563.052 86.0533 562.305 84.8H551.385V80.44H559.985L564.025 84.8C564.799 85.84 565.412 87.08 565.865 88.52C566.319 89.9333 566.545 91.2133 566.545 92.36C566.545 93.88 565.972 95.28 564.825 96.56C563.705 97.8133 562.239 98.7333 560.425 99.32C562.585 101.32 564.705 102.867 566.785 103.96C568.865 105.027 570.772 105.56 572.505 105.56C574.212 105.56 575.919 105.12 577.625 104.24C579.359 103.333 580.892 102.093 582.225 100.52V98.12C581.585 98.8933 580.839 99.4933 579.985 99.92C579.159 100.32 578.279 100.52 577.345 100.52C576.252 100.52 575.079 100.16 573.825 99.44C572.572 98.72 571.519 97.84 570.665 96.8C569.812 95.7333 569.385 94.72 569.385 93.76C569.385 92.8267 569.692 91.9467 570.305 91.12C570.919 90.2933 571.732 89.6267 572.745 89.12C573.759 88.6133 574.825 88.36 575.945 88.36C577.065 88.36 578.172 88.6267 579.265 89.16C580.385 89.6667 581.372 90.3733 582.225 91.28V84.8H566.345L562.305 80.44H582.625L586.945 84.8ZM591.465 84.8H589.225L584.985 80.44H591.465V84.8ZM578.945 91.4C578.065 91.4 577.159 91.64 576.225 92.12C575.292 92.6 574.505 93.2 573.865 93.92C573.252 94.64 572.945 95.3333 572.945 96C572.945 96.3733 573.119 96.6933 573.465 96.96C573.812 97.2267 574.225 97.36 574.705 97.36C575.879 97.36 577.105 96.9867 578.385 96.24C579.692 95.4933 580.919 94.4667 582.065 93.16C581.665 92.6267 581.185 92.2 580.625 91.88C580.065 91.56 579.505 91.4 578.945 91.4ZM559.305 92.52C558.665 92.52 558.052 92.7467 557.465 93.2C556.879 93.6533 556.585 94.16 556.585 94.72C556.585 95.2 556.852 95.6667 557.385 96.12C558.692 95.6933 559.852 94.96 560.865 93.92C560.572 93.4667 560.279 93.12 559.985 92.88C559.719 92.64 559.492 92.52 559.305 92.52ZM599.524 81.88C599.524 81 599.738 80.1733 600.164 79.4C600.618 78.6 601.218 77.96 601.964 77.48C602.711 76.9733 603.498 76.72 604.324 76.72C605.391 76.72 606.604 77.1733 607.964 78.08C609.324 78.9867 610.484 80.0933 611.444 81.4C612.431 82.68 612.924 83.84 612.924 84.88V92.92H620.444V84.8H616.444L613.324 80.44H620.764L625.124 84.8V104.12C625.124 104.627 625.484 105.227 626.204 105.92C626.951 106.587 627.831 107.173 628.844 107.68C629.858 108.16 630.711 108.4 631.404 108.4C632.391 108.4 633.191 107.933 633.804 107L637.884 109.44C636.978 110.48 635.871 111 634.564 111C632.964 111 631.031 110.427 628.764 109.28C626.524 108.16 624.578 106.84 622.924 105.32C621.271 103.773 620.444 102.453 620.444 101.36V97H612.924V100.2C612.924 100.467 612.831 100.693 612.644 100.88C612.458 101.067 612.231 101.16 611.964 101.16C611.298 101.16 610.324 100.693 609.044 99.76C607.791 98.8267 606.658 97.7733 605.644 96.6C604.631 95.4267 604.124 94.52 604.124 93.88C604.124 93.5867 604.231 93.36 604.444 93.2C604.658 93.0133 604.938 92.92 605.284 92.92H608.244V81.6C608.244 81.1733 608.124 80.8133 607.884 80.52C607.644 80.2 607.338 80.04 606.964 80.04C606.511 80.04 606.031 80.2533 605.524 80.68C605.018 81.08 604.591 81.6 604.244 82.24C603.924 82.88 603.764 83.48 603.764 84.04C603.764 84.6 604.084 85.2 604.724 85.84C605.391 86.48 606.244 87.04 607.284 87.52L606.564 88.84C604.458 87.9867 602.751 86.9333 601.444 85.68C600.164 84.4 599.524 83.1333 599.524 81.88ZM623.044 80.44H629.644V84.8H627.444L623.044 80.44ZM628.534 80.44H633.254L637.614 84.8V104.12C637.614 104.627 637.974 105.227 638.694 105.92C639.414 106.587 640.254 107.173 641.214 107.68C642.2 108.16 643.04 108.4 643.734 108.4C644.694 108.4 645.534 107.92 646.254 106.96L650.374 109.44C649.974 109.947 649.48 110.333 648.894 110.6C648.334 110.867 647.72 111 647.054 111C645.454 111 643.52 110.413 641.254 109.24C639.014 108.093 637.067 106.733 635.414 105.16C633.76 103.56 632.934 102.187 632.934 101.04V84.8H628.534V80.44ZM635.574 80.44H642.134V84.8H639.894L635.574 80.44ZM640.995 80.44H659.435V84.8H653.195C655.408 88.6133 656.515 92 656.515 94.96C656.515 96.0267 656.261 97.0267 655.755 97.96C655.275 98.8933 654.621 99.6533 653.795 100.24C652.968 100.8 652.088 101.08 651.155 101.08C649.901 101.08 648.635 100.773 647.355 100.16C646.075 99.52 645.021 98.72 644.195 97.76C643.368 96.7733 642.955 95.7867 642.955 94.8C642.955 93.7333 643.355 92.8 644.155 92C644.981 91.1733 645.928 90.76 646.995 90.76C647.741 90.76 648.501 91.0133 649.275 91.52C650.075 92 650.768 92.6533 651.355 93.48L650.635 94.36C650.128 93.9067 649.728 93.68 649.435 93.68C649.061 93.68 648.675 93.8667 648.275 94.24C647.875 94.5867 647.528 95.0267 647.235 95.56C646.968 96.0667 646.835 96.5467 646.835 97C646.835 97.3467 646.968 97.6533 647.235 97.92C647.528 98.1867 647.861 98.32 648.235 98.32C649.088 98.32 649.888 97.9867 650.635 97.32C651.381 96.6267 651.981 95.7333 652.435 94.64C652.888 93.52 653.115 92.3867 653.115 91.24C653.115 89.2667 652.461 87.12 651.155 84.8H640.995V80.44ZM658.899 81.88C658.899 81 659.113 80.1733 659.539 79.4C659.993 78.6 660.593 77.96 661.339 77.48C662.086 76.9733 662.873 76.72 663.699 76.72C664.766 76.72 665.979 77.1733 667.339 78.08C668.699 78.9867 669.859 80.0933 670.819 81.4C671.806 82.68 672.299 83.84 672.299 84.88V92.92H679.819V84.8H675.819L672.699 80.44H680.139L684.499 84.8V104.12C684.499 104.627 684.859 105.227 685.579 105.92C686.326 106.587 687.206 107.173 688.219 107.68C689.233 108.16 690.086 108.4 690.779 108.4C691.766 108.4 692.566 107.933 693.179 107L697.259 109.44C696.353 110.48 695.246 111 693.939 111C692.339 111 690.406 110.427 688.139 109.28C685.899 108.16 683.953 106.84 682.299 105.32C680.646 103.773 679.819 102.453 679.819 101.36V97H672.299V100.2C672.299 100.467 672.206 100.693 672.019 100.88C671.833 101.067 671.606 101.16 671.339 101.16C670.673 101.16 669.699 100.693 668.419 99.76C667.166 98.8267 666.033 97.7733 665.019 96.6C664.006 95.4267 663.499 94.52 663.499 93.88C663.499 93.5867 663.606 93.36 663.819 93.2C664.033 93.0133 664.313 92.92 664.659 92.92H667.619V81.6C667.619 81.1733 667.499 80.8133 667.259 80.52C667.019 80.2 666.713 80.04 666.339 80.04C665.886 80.04 665.406 80.2533 664.899 80.68C664.393 81.08 663.966 81.6 663.619 82.24C663.299 82.88 663.139 83.48 663.139 84.04C663.139 84.6 663.459 85.2 664.099 85.84C664.766 86.48 665.619 87.04 666.659 87.52L665.939 88.84C663.833 87.9867 662.126 86.9333 660.819 85.68C659.539 84.4 658.899 83.1333 658.899 81.88ZM682.419 80.44H689.019V84.8H686.819L682.419 80.44ZM709.229 84.8V104.12C709.229 104.627 709.589 105.227 710.309 105.92C711.029 106.587 711.869 107.173 712.829 107.68C713.815 108.16 714.655 108.4 715.349 108.4C716.335 108.4 717.189 107.92 717.909 106.96L721.989 109.44C721.162 110.48 720.069 111 718.709 111C717.055 111 715.122 110.413 712.909 109.24C710.722 108.067 708.815 106.707 707.189 105.16C705.562 103.613 704.749 102.413 704.749 101.56V99.92C704.135 100.533 703.442 101.013 702.669 101.36C701.922 101.707 701.149 101.88 700.349 101.88C698.722 101.88 697.109 101.427 695.509 100.52C693.935 99.5867 692.642 98.4267 691.629 97.04C690.642 95.6267 690.149 94.28 690.149 93C690.149 91.9867 690.482 91.04 691.149 90.16C691.815 89.28 692.695 88.5733 693.789 88.04C694.882 87.5067 696.029 87.24 697.229 87.24C698.589 87.24 699.909 87.56 701.189 88.2C702.495 88.84 703.615 89.7333 704.549 90.88V84.8H687.909V80.44H704.909L709.229 84.8ZM713.749 84.8H711.509L707.149 80.44H713.749V84.8ZM700.949 90.56C699.829 90.56 698.709 90.84 697.589 91.4C696.469 91.96 695.549 92.68 694.829 93.56C694.109 94.4133 693.749 95.28 693.749 96.16C693.749 96.8267 694.042 97.4 694.629 97.88C695.215 98.36 695.909 98.6 696.709 98.6C698.229 98.6 699.695 98.2533 701.109 97.56C702.522 96.8667 703.669 95.8933 704.549 94.64V92.72C704.042 92.0533 703.469 91.5333 702.829 91.16C702.189 90.76 701.562 90.56 700.949 90.56ZM687.687 67.36C687.98 67.8933 688.353 68.32 688.807 68.64C689.26 68.9333 689.713 69.08 690.167 69.08C690.487 69.08 690.9 69.0133 691.407 68.88C691.913 68.7467 692.233 68.6667 692.367 68.64C693.353 68.3467 694.047 68.2 694.447 68.2C694.927 68.2 695.487 68.4133 696.127 68.84C696.767 69.2667 697.42 69.88 698.087 70.68L707.047 80.44H705.007L699.567 75.04C698.233 73.6267 697.193 72.92 696.447 72.92C696.18 72.92 695.513 73.08 694.447 73.4C694.287 73.4533 693.98 73.5467 693.527 73.68C693.073 73.7867 692.74 73.84 692.527 73.84C691.62 73.84 690.633 73.32 689.567 72.28C688.473 71.24 687.447 69.8667 686.487 68.16L687.687 67.36ZM712.674 80.44H732.634L736.994 84.8V104.12C736.994 104.627 737.354 105.227 738.074 105.92C738.794 106.587 739.634 107.173 740.594 107.68C741.581 108.16 742.408 108.4 743.074 108.4C744.088 108.4 744.954 107.92 745.674 106.96L749.714 109.44C748.888 110.48 747.781 111 746.394 111C744.874 111 742.981 110.427 740.714 109.28C738.448 108.133 736.474 106.773 734.794 105.2C733.141 103.6 732.314 102.213 732.314 101.04V94.24C731.594 93.6533 730.821 93.2 729.994 92.88C729.168 92.56 728.368 92.4 727.594 92.4C726.074 92.4 724.661 92.7333 723.354 93.4C722.074 94.0667 721.061 94.9867 720.314 96.16C719.568 97.3067 719.194 98.5867 719.194 100C719.194 100.96 719.488 101.987 720.074 103.08C720.661 104.147 721.408 105.04 722.314 105.76C723.221 106.48 724.088 106.84 724.914 106.84C725.794 106.84 726.501 106.52 727.034 105.88L730.394 108.96C730.128 109.28 729.728 109.52 729.194 109.68C728.661 109.867 728.074 109.96 727.434 109.96C725.568 109.96 723.701 109.24 721.834 107.8C719.968 106.333 718.421 104.52 717.194 102.36C715.994 100.2 715.394 98.1467 715.394 96.2C715.394 94.8133 715.768 93.5467 716.514 92.4C717.261 91.2267 718.248 90.3067 719.474 89.64C720.728 88.9467 722.074 88.6 723.514 88.6C726.288 88.6 729.221 89.72 732.314 91.96V84.8H712.674V80.44ZM734.914 80.44H741.514V84.8H739.274L734.914 80.44ZM744.08 121.6C741.974 119.253 740.107 117.467 738.48 116.24C736.854 115.013 735.574 114.4 734.64 114.4C733.28 114.4 731.56 114.64 729.48 115.12L726.92 111.2C728.814 110.907 730.44 110.76 731.8 110.76C732.76 110.76 733.774 111.027 734.84 111.56C735.907 112.12 736.96 112.867 738 113.8L745.48 120.64L744.08 121.6ZM753.609 78.72V105.24C753.609 105.747 753.969 106.347 754.689 107.04C755.409 107.733 756.249 108.32 757.209 108.8C758.195 109.307 759.022 109.56 759.689 109.56C760.622 109.56 761.489 109.08 762.289 108.12L766.369 110.56C765.969 111.067 765.475 111.453 764.889 111.72C764.329 112.013 763.715 112.16 763.049 112.16C761.609 112.16 759.742 111.587 757.449 110.44C755.182 109.32 753.195 107.973 751.489 106.4C749.782 104.827 748.929 103.44 748.929 102.24V74.96L753.609 78.72ZM767.969 78.72V105.24C767.969 105.747 768.329 106.347 769.049 107.04C769.769 107.733 770.609 108.32 771.569 108.8C772.555 109.307 773.395 109.56 774.089 109.56C775.022 109.56 775.889 109.08 776.689 108.12L780.729 110.56C779.875 111.627 778.769 112.16 777.409 112.16C775.969 112.16 774.115 111.587 771.849 110.44C769.582 109.32 767.595 107.973 765.889 106.4C764.182 104.827 763.329 103.44 763.329 102.24V74.96L767.969 78.72Z" fill="#F67C33"/>
</svg>
