<svg width="1440" height="752" viewBox="0 0 1440 752" fill="none" xmlns="http://www.w3.org/2000/svg">
<path fill-rule="evenodd" clip-rule="evenodd" d="M0 376C0 582.8 0.221007 752 0.492086 752C0.968633 752 11.5977 747.12 16.8345 744.496C18.259 743.783 21.1727 742.512 23.3094 741.672C25.446 740.832 30.4964 738.727 34.5324 736.994C38.5683 735.261 43.036 733.486 44.4604 733.051C45.8849 732.615 49.3813 731.366 52.2302 730.274C57.1882 728.375 63.8003 726.134 71.223 723.836C73.1223 723.248 75.8417 722.319 77.2662 721.773C78.6906 721.226 81.2158 720.403 82.8777 719.944C84.5396 719.485 88.4245 718.381 91.5108 717.491C94.5971 716.601 98.6763 715.471 100.576 714.981C102.475 714.49 106.748 713.368 110.072 712.487C113.396 711.606 117.978 710.485 120.255 709.996C122.531 709.506 125.194 708.812 126.172 708.453C127.149 708.093 129.948 707.412 132.392 706.939C134.835 706.466 140.525 705.346 145.036 704.45C149.547 703.554 155.568 702.442 158.417 701.979C179.559 698.545 184.489 697.816 192.518 696.935C197.504 696.388 206.439 695.525 212.374 695.017C226.619 693.799 300.771 693.837 321.583 695.074C350.94 696.818 381.685 699.383 387.626 700.583C389.288 700.919 394.338 701.576 398.849 702.044C403.36 702.511 411.518 703.579 416.978 704.417C422.439 705.255 429.835 706.371 433.413 706.898C436.992 707.424 440.877 708.122 442.046 708.448C443.216 708.774 446.892 709.475 450.216 710.007C453.54 710.538 459.755 711.692 464.029 712.57C468.302 713.449 473.935 714.557 476.547 715.033C479.158 715.508 484.209 716.557 487.77 717.364C491.331 718.17 496.741 719.34 499.793 719.965C502.845 720.59 505.616 721.297 505.953 721.538C506.289 721.779 509.037 722.43 512.059 722.986C515.081 723.541 520.662 724.692 524.46 725.543C528.259 726.393 533.309 727.499 535.683 728C538.058 728.501 543.108 729.63 546.906 730.509C550.705 731.388 555.966 732.473 558.597 732.92C561.228 733.367 564.142 734.008 565.071 734.344C566.002 734.681 569.482 735.45 572.806 736.054C576.129 736.658 582.345 737.83 586.619 738.658C600.91 741.429 622.5 744.664 635.396 745.966C640.856 746.518 646.489 747.221 647.914 747.53C661.254 750.421 746.905 751.603 775.252 749.288C793.11 747.829 808.553 746.192 815.827 744.985C818.914 744.474 824.935 743.543 829.209 742.917C839.848 741.359 845.985 740.34 855.108 738.618C859.381 737.812 865.597 736.658 868.921 736.054C872.245 735.45 875.684 734.696 876.565 734.378C877.444 734.06 880.164 733.416 882.608 732.947C885.051 732.478 890.158 731.376 893.957 730.496C897.755 729.617 903 728.494 905.611 728C908.223 727.506 913.468 726.383 917.266 725.504C921.065 724.624 926.115 723.495 928.489 722.993C930.863 722.492 935.719 721.423 939.281 720.618C953.089 717.498 960.615 715.855 965.18 714.965C967.791 714.456 973.424 713.349 977.698 712.505C981.971 711.661 988.381 710.515 991.942 709.959C995.504 709.403 999 708.699 999.712 708.394C1000.42 708.09 1003.92 707.425 1007.48 706.916C1011.04 706.407 1018.42 705.299 1023.88 704.452C1029.35 703.606 1037.7 702.525 1042.45 702.05C1047.19 701.575 1052.24 700.917 1053.67 700.587C1058.53 699.464 1092.98 696.582 1119.71 695.064C1141.05 693.851 1214.1 693.816 1228.92 695.011C1243.37 696.177 1254.94 697.542 1267.34 699.545C1272.8 700.427 1279.79 701.534 1282.88 702.005C1288.02 702.79 1299.1 704.912 1308.78 706.965C1312.83 707.825 1321.65 710.04 1331.22 712.602C1334.31 713.429 1338.58 714.498 1340.72 714.979C1347.61 716.529 1353.2 718.095 1354.96 718.975C1356.47 719.724 1362.61 721.639 1374.82 725.172C1376.72 725.721 1379.05 726.537 1380 726.985C1380.95 727.433 1384.06 728.564 1386.91 729.499C1392.63 731.377 1404.07 735.698 1406.76 737C1407.71 737.46 1412.18 739.284 1416.69 741.054C1421.2 742.824 1425.26 744.662 1425.71 745.136C1426.16 745.611 1427.04 746 1427.66 746C1428.28 746 1430.8 747.125 1433.26 748.5C1435.72 749.875 1438.24 751 1438.87 751C1439.8 751 1440 684.82 1440 375.5V0H720H0V376Z" fill="#077773"/>
</svg>
