<svg width="21" height="31" viewBox="0 0 21 31" fill="none" xmlns="http://www.w3.org/2000/svg">
<path d="M0.430625 9.04C0.537292 6.18666 1.47063 3.98667 3.23063 2.44C4.99063 0.893332 7.37729 0.119998 10.3906 0.119998C12.3906 0.119998 14.0973 0.466665 15.5106 1.16C16.9506 1.85333 18.0306 2.8 18.7506 4C19.4973 5.2 19.8706 6.54667 19.8706 8.04C19.8706 9.8 19.4306 11.24 18.5506 12.36C17.6706 13.4533 16.644 14.2 15.4706 14.6V14.76C16.9906 15.2667 18.1906 16.1067 19.0706 17.28C19.9506 18.4533 20.3906 19.96 20.3906 21.8C20.3906 23.4533 20.004 24.92 19.2306 26.2C18.484 27.4533 17.3773 28.44 15.9106 29.16C14.4706 29.88 12.7506 30.24 10.7506 30.24C7.55063 30.24 4.99063 29.4533 3.07063 27.88C1.17729 26.3067 0.177292 23.9333 0.0706251 20.76H6.71063C6.73729 21.9333 7.07063 22.8667 7.71063 23.56C8.35063 24.2267 9.28396 24.56 10.5106 24.56C11.5506 24.56 12.3506 24.2667 12.9106 23.68C13.4973 23.0667 13.7906 22.2667 13.7906 21.28C13.7906 20 13.3773 19.08 12.5506 18.52C11.7506 17.9333 10.4573 17.64 8.67062 17.64H7.39063V12.08H8.67062C10.0306 12.08 11.124 11.8533 11.9506 11.4C12.804 10.92 13.2306 10.08 13.2306 8.88C13.2306 7.92 12.964 7.17333 12.4306 6.64C11.8973 6.10667 11.164 5.84 10.2306 5.84C9.21729 5.84 8.45729 6.14667 7.95063 6.76C7.47063 7.37333 7.19063 8.13333 7.11063 9.04H0.430625Z" fill="white"/>
</svg>
