<svg width="21" height="30" viewBox="0 0 21 30" fill="none" xmlns="http://www.w3.org/2000/svg">
<path d="M0.634219 24.52C1.54089 23.8 1.95422 23.4667 1.87422 23.52C4.48755 21.36 6.54089 19.5867 8.03422 18.2C9.55422 16.8133 10.8342 15.36 11.8742 13.84C12.9142 12.32 13.4342 10.84 13.4342 9.4C13.4342 8.30666 13.1809 7.45333 12.6742 6.84C12.1676 6.22666 11.4076 5.92 10.3942 5.92C9.38089 5.92 8.58089 6.30666 7.99422 7.08C7.43422 7.82667 7.15422 8.89333 7.15422 10.28H0.554219C0.607552 8.01333 1.08755 6.12 1.99422 4.6C2.92755 3.08 4.14089 1.96 5.63422 1.24C7.15422 0.519998 8.83422 0.159998 10.6742 0.159998C13.8476 0.159998 16.2342 0.973331 17.8342 2.6C19.4609 4.22667 20.2742 6.34667 20.2742 8.96C20.2742 11.8133 19.3009 14.4667 17.3542 16.92C15.4076 19.3467 12.9276 21.72 9.91422 24.04H20.7142V29.6H0.634219V24.52Z" fill="white"/>
</svg>
