<svg width="87" height="64" viewBox="0 0 87 64" fill="none" xmlns="http://www.w3.org/2000/svg">
<path d="M7.38088 9.168C13.482 3.084 22.7142 0 34.8164 0H39.165V11.276L35.6687 11.92C29.7111 13.016 25.5669 15.172 23.3491 18.336C22.1919 20.0405 21.5356 21.9922 21.4444 24H34.8164C35.9697 24 37.0758 24.4214 37.8914 25.1716C38.7069 25.9217 39.165 26.9391 39.165 28V56C39.165 60.412 35.2643 64 30.4678 64H4.37598C3.22265 64 2.11656 63.5786 1.30103 62.8284C0.485502 62.0783 0.0273435 61.0609 0.0273435 60V40L0.0403895 28.324C0.00125176 27.88 -0.824989 17.36 7.38088 9.168ZM78.3027 64H52.2109C51.0576 64 49.9515 63.5786 49.136 62.8284C48.3205 62.0783 47.8623 61.0609 47.8623 60V40L47.8754 28.324C47.8362 27.88 47.01 17.36 55.2158 9.168C61.317 3.084 70.5491 0 82.6514 0H87V11.276L83.5037 11.92C77.5461 13.016 73.4018 15.172 71.184 18.336C70.0268 20.0405 69.3705 21.9922 69.2793 24H82.6514C83.8047 24 84.9108 24.4214 85.7263 25.1716C86.5418 25.9217 87 26.9391 87 28V56C87 60.412 83.0993 64 78.3027 64Z" fill="#F67C33"/>
</svg>
