<svg width="317" height="72" viewBox="0 0 317 72" fill="none" xmlns="http://www.w3.org/2000/svg">
<path d="M25.912 23.16V46.344C25.912 46.952 26.344 47.672 27.208 48.504C28.072 49.304 29.08 50.008 30.232 50.616C31.416 51.192 32.424 51.48 33.256 51.48C34.44 51.48 35.464 50.904 36.328 49.752L41.224 52.728C40.232 53.976 38.92 54.6 37.288 54.6C35.304 54.6 32.984 53.896 30.328 52.488C27.704 51.08 25.416 49.448 23.464 47.592C21.512 45.736 20.536 44.296 20.536 43.272V41.304C19.8 42.04 18.968 42.616 18.04 43.032C17.144 43.448 16.216 43.656 15.256 43.656C13.304 43.656 11.368 43.112 9.448 42.024C7.56 40.904 6.008 39.512 4.792 37.848C3.608 36.152 3.016 34.536 3.016 33C3.016 31.784 3.416 30.648 4.216 29.592C5.016 28.536 6.072 27.688 7.384 27.048C8.696 26.408 10.072 26.088 11.512 26.088C13.144 26.088 14.728 26.472 16.264 27.24C17.832 28.008 19.176 29.08 20.296 30.456V23.16H0.328V17.928H20.728L25.912 23.16ZM31.336 23.16H28.648L23.416 17.928H31.336V23.16ZM15.976 30.072C14.632 30.072 13.288 30.408 11.944 31.08C10.6 31.752 9.496 32.616 8.632 33.672C7.768 34.696 7.336 35.736 7.336 36.792C7.336 37.592 7.688 38.28 8.392 38.856C9.096 39.432 9.928 39.72 10.888 39.72C12.712 39.72 14.472 39.304 16.168 38.472C17.864 37.64 19.24 36.472 20.296 34.968V32.664C19.688 31.864 19 31.24 18.232 30.792C17.464 30.312 16.712 30.072 15.976 30.072ZM78.0468 52.728C76.9908 53.976 75.6468 54.6 74.0148 54.6C72.0948 54.6 69.7748 53.896 67.0548 52.488C64.3668 51.112 62.0308 49.48 60.0468 47.592C58.0628 45.672 57.0708 44.024 57.0708 42.648V37.368C56.1428 37.624 55.3588 37.752 54.7188 37.752C53.8548 37.752 52.8788 37.512 51.7908 37.032C50.7028 36.552 49.5988 35.864 48.4788 34.968C47.3588 36.472 45.9988 37.592 44.3988 38.328C42.7988 39.064 41.0868 39.4 39.2628 39.336C41.6308 42.472 43.8548 44.936 45.9348 46.728C48.0148 48.52 49.7268 49.416 51.0708 49.416C52.0308 49.416 52.9588 48.84 53.8548 47.688L57.8868 51.624C57.4068 52.136 56.7828 52.536 56.0148 52.824C55.2468 53.144 54.4468 53.304 53.6148 53.304C51.6628 53.304 48.9908 51.864 45.5988 48.984C42.2388 46.072 39.2308 42.792 36.5748 39.144C33.9188 35.464 32.5908 32.664 32.5908 30.744C32.5908 29.72 33.0228 28.856 33.8867 28.152C34.7828 27.416 35.8068 27.048 36.9588 27.048C38.1108 27.048 39.2308 27.544 40.3188 28.536C41.4068 29.528 42.2548 30.84 42.8628 32.472C43.5668 31.96 44.1268 31.32 44.5428 30.552C44.9588 29.752 45.1668 28.92 45.1668 28.056C45.1668 26.36 44.4308 24.728 42.9588 23.16H30.0467V17.928H41.4228L46.0788 23.112C47.1668 24.328 48.0308 25.624 48.6708 27C49.3108 28.344 49.6468 29.592 49.6788 30.744C49.6788 31.384 49.5188 32.136 49.1988 33C50.0308 33.512 50.9268 33.768 51.8868 33.768C52.7188 33.768 53.5828 33.64 54.4788 33.384C55.3748 33.096 56.2388 32.696 57.0708 32.184V23.16H48.8628L44.1588 17.928H57.4548L62.6868 23.16V46.344C62.6868 46.952 63.1188 47.672 63.9828 48.504C64.8468 49.304 65.8548 50.008 67.0068 50.616C68.1908 51.192 69.1988 51.48 70.0308 51.48C71.1828 51.48 72.2068 50.904 73.1028 49.752L78.0468 52.728ZM65.4708 23.16L60.1908 17.928H68.1108V23.16H65.4708ZM37.0547 34.824C38.5268 34.824 40.0468 34.392 41.6148 33.528C41.4548 32.984 41.1188 32.52 40.6068 32.136C40.0948 31.752 39.5828 31.56 39.0708 31.56C38.2708 31.56 37.5508 31.768 36.9108 32.184C36.2708 32.568 35.9508 33.016 35.9508 33.528C35.9508 33.848 36.0468 34.152 36.2388 34.44C36.4628 34.696 36.7348 34.824 37.0547 34.824ZM43.3101 60.696C45.3901 62.904 47.7421 64.648 50.3661 65.928C52.9581 67.24 55.5821 67.896 58.2381 67.896C59.6781 67.896 61.0861 67.576 62.4621 66.936C63.8381 66.296 64.9741 65.48 65.8701 64.488C66.7341 63.496 67.1661 62.488 67.1661 61.464C67.1661 60.504 66.7981 59.688 66.0621 59.016C65.2941 58.344 64.3821 58.008 63.3261 58.008C62.5581 58.008 61.7741 58.168 60.9741 58.488C60.1421 58.84 59.4701 59.272 58.9581 59.784C58.4141 60.296 58.1421 60.808 58.1421 61.32C58.1421 61.672 58.2861 61.96 58.5741 62.184C58.8301 62.44 59.1501 62.568 59.5341 62.568C60.1741 62.568 61.0381 61.896 62.1261 60.552L65.3421 62.52C64.7661 63.16 64.1421 63.656 63.4701 64.008C62.7661 64.392 62.0621 64.584 61.3581 64.584C60.1421 64.584 58.8941 64.312 57.6141 63.768C56.3021 63.256 55.2301 62.6 54.3981 61.8C53.5341 61 53.1021 60.2 53.1021 59.4C53.1021 58.536 53.4221 57.704 54.0621 56.904C54.7021 56.136 55.5661 55.512 56.6541 55.032C57.7101 54.552 58.8461 54.312 60.0621 54.312C61.8861 54.312 63.7421 54.808 65.6301 55.8C67.5181 56.792 69.0701 58.04 70.2861 59.544C71.5341 61.048 72.1581 62.488 72.1581 63.864C72.1581 65.144 71.6941 66.344 70.7661 67.464C69.8381 68.616 68.6221 69.528 67.1181 70.2C65.5821 70.872 63.9981 71.208 62.3661 71.208C54.7821 71.208 47.9021 68.248 41.7261 62.328L43.3101 60.696ZM68.8619 21.768C68.8619 20.648 69.1499 19.608 69.7259 18.648C70.3019 17.656 71.0699 16.888 72.0299 16.344C73.0219 15.768 74.0779 15.48 75.1979 15.48C76.6059 15.48 77.9499 15.8 79.2299 16.44C80.5419 17.048 81.5979 17.848 82.3979 18.84C83.1979 19.832 83.5979 20.856 83.5979 21.912C83.5979 23 83.1659 23.928 82.3019 24.696C81.4699 25.432 80.4619 25.8 79.2779 25.8C78.3499 25.8 77.4219 25.592 76.4939 25.176C75.5659 24.76 74.7179 24.184 73.9499 23.448C73.9179 23.544 73.8539 23.752 73.7579 24.072C73.6619 24.36 73.6139 24.68 73.6139 25.032C73.6139 25.768 73.8379 26.488 74.2859 27.192C74.7339 27.896 75.3419 28.488 76.1099 28.968C77.9339 28.392 79.4539 28.104 80.6699 28.104L83.6939 32.808C82.1259 32.808 80.6539 33.064 79.2779 33.576C77.9339 34.056 76.8619 34.712 76.0619 35.544C75.2939 36.376 74.9099 37.272 74.9099 38.232C74.9099 38.84 75.2139 39.352 75.8219 39.768C76.4299 40.152 77.1339 40.344 77.9339 40.344C80.3339 40.344 82.7019 39.608 85.0379 38.136C87.3739 36.632 89.2939 34.616 90.7979 32.088V23.16H88.1579L84.1259 17.928H91.2299L96.4139 23.16V46.344C96.4139 46.952 96.8459 47.672 97.7099 48.504C98.6059 49.304 99.6619 50.008 100.878 50.616C102.094 51.192 103.118 51.48 103.95 51.48C104.494 51.48 105.022 51.336 105.534 51.048C106.046 50.76 106.478 50.344 106.83 49.8L111.726 52.728C111.182 53.336 110.558 53.8 109.854 54.12C109.182 54.44 108.462 54.6 107.694 54.6C105.806 54.6 103.518 53.912 100.83 52.536C98.1419 51.192 95.7899 49.592 93.7739 47.736C91.7899 45.88 90.7979 44.312 90.7979 43.032V39.912C89.6779 41.192 88.3819 42.184 86.9099 42.888C85.4379 43.592 83.9819 43.944 82.5419 43.944C80.4939 43.944 78.5259 43.48 76.6379 42.552C74.7819 41.592 73.2779 40.392 72.1259 38.952C71.0059 37.48 70.4459 36.008 70.4459 34.536C70.4459 33.576 70.7819 32.664 71.4539 31.8C72.1579 30.936 73.0859 30.232 74.2379 29.688C72.5419 28.504 71.2139 27.208 70.2539 25.8C69.3259 24.392 68.8619 23.048 68.8619 21.768ZM93.9179 17.928H101.79V23.16H99.1979L93.9179 17.928ZM75.1019 22.2C75.3579 22.296 75.5979 22.344 75.8219 22.344C76.2379 22.344 76.6379 22.216 77.0219 21.96C77.4059 21.704 77.6939 21.416 77.8859 21.096C78.1099 21 78.2859 20.84 78.4139 20.616C78.5419 20.36 78.6059 20.104 78.6059 19.848C78.6059 19.752 78.5739 19.608 78.5099 19.416C78.3819 19.32 78.2059 19.272 77.9819 19.272C77.3099 19.272 76.6539 19.688 76.0139 20.52C75.7579 20.648 75.5339 20.872 75.3419 21.192C75.1499 21.512 75.0699 21.848 75.1019 22.2ZM68.8814 6.024C69.2334 6.472 69.6654 6.824 70.1774 7.08C70.6894 7.336 71.1694 7.464 71.6174 7.464C71.9694 7.464 72.7854 7.272 74.0654 6.888C74.2894 6.824 74.6894 6.728 75.2654 6.6C75.8094 6.44 76.1934 6.36 76.4174 6.36C77.3454 6.36 78.7374 7.032 80.5934 8.376L92.0654 16.92L89.1854 10.008C88.8014 9.048 88.3214 8.264 87.7454 7.656C87.1694 7.048 86.5934 6.744 86.0174 6.744C85.6974 6.776 85.3774 6.824 85.0574 6.888C84.7374 6.92 84.4494 6.952 84.1934 6.984C83.4574 7.144 82.8974 7.224 82.5134 7.224C81.7134 7.224 80.7694 6.744 79.6814 5.784C78.5614 4.824 77.4734 3.528 76.4174 1.896L77.8574 0.935995C78.1454 1.352 78.5614 1.688 79.1054 1.944C79.6494 2.2 80.2254 2.328 80.8334 2.328C81.0254 2.328 81.3774 2.28 81.8894 2.184C82.4014 2.088 82.8014 2.024 83.0894 1.992C84.1454 1.768 84.8974 1.656 85.3454 1.656C86.2094 1.656 87.0734 2.088 87.9374 2.952C88.8014 3.784 89.5054 4.92 90.0494 6.36L94.3694 17.928H90.7694L82.4654 12.552C81.2814 11.688 80.1934 11.256 79.2014 11.256C78.9454 11.256 78.2094 11.416 76.9934 11.736C75.9374 12.088 75.2174 12.264 74.8334 12.264C73.8734 12.264 72.7854 11.832 71.5694 10.968C70.3214 10.072 69.0414 8.824 67.7294 7.224L68.8814 6.024ZM126.131 23.16V46.344C126.131 46.952 126.563 47.672 127.427 48.504C128.291 49.304 129.299 50.008 130.451 50.616C131.635 51.192 132.643 51.48 133.475 51.48C134.659 51.48 135.683 50.904 136.547 49.752L141.443 52.728C140.451 53.976 139.139 54.6 137.507 54.6C135.523 54.6 133.203 53.896 130.547 52.488C127.923 51.08 125.635 49.448 123.683 47.592C121.731 45.736 120.755 44.296 120.755 43.272V41.304C120.019 42.04 119.187 42.616 118.259 43.032C117.363 43.448 116.435 43.656 115.475 43.656C113.523 43.656 111.587 43.112 109.667 42.024C107.779 40.904 106.227 39.512 105.011 37.848C103.827 36.152 103.235 34.536 103.235 33C103.235 31.784 103.635 30.648 104.435 29.592C105.235 28.536 106.291 27.688 107.603 27.048C108.915 26.408 110.291 26.088 111.731 26.088C113.363 26.088 114.947 26.472 116.483 27.24C118.051 28.008 119.395 29.08 120.515 30.456V23.16H100.547V17.928H120.947L126.131 23.16ZM131.555 23.16H128.867L123.635 17.928H131.555V23.16ZM116.195 30.072C114.851 30.072 113.507 30.408 112.163 31.08C110.819 31.752 109.715 32.616 108.851 33.672C107.987 34.696 107.555 35.736 107.555 36.792C107.555 37.592 107.907 38.28 108.611 38.856C109.315 39.432 110.147 39.72 111.107 39.72C112.931 39.72 114.691 39.304 116.387 38.472C118.083 37.64 119.459 36.472 120.515 34.968V32.664C119.907 31.864 119.219 31.24 118.451 30.792C117.683 30.312 116.931 30.072 116.195 30.072ZM163.186 23.16V29.16C163.954 28.36 164.754 27.72 165.586 27.24C166.418 26.728 167.186 26.472 167.89 26.472C169.138 26.472 170.466 26.984 171.874 28.008C173.314 29.032 174.514 30.296 175.474 31.8C176.434 33.304 176.914 34.696 176.914 35.976C176.914 37.128 176.546 38.232 175.81 39.288C175.106 40.344 174.162 41.224 172.978 41.928C171.826 42.632 170.594 43.048 169.282 43.176L166.066 38.952C167.986 38.632 169.586 37.88 170.866 36.696C172.178 35.48 172.834 34.152 172.834 32.712C172.834 32.136 172.626 31.624 172.21 31.176C171.826 30.696 171.362 30.456 170.818 30.456C169.666 30.456 168.434 30.904 167.122 31.8C165.81 32.696 164.498 33.96 163.186 35.592V46.344C163.186 46.952 163.634 47.672 164.53 48.504C165.426 49.304 166.466 50.008 167.65 50.616C168.866 51.192 169.89 51.48 170.722 51.48C171.842 51.48 172.802 50.92 173.602 49.8L178.498 52.728C177.986 53.336 177.378 53.8 176.674 54.12C176.002 54.44 175.282 54.6 174.514 54.6C172.626 54.6 170.322 53.912 167.602 52.536C164.914 51.16 162.562 49.56 160.546 47.736C158.562 45.88 157.57 44.312 157.57 43.032V39.672C156.834 40.408 156.018 40.984 155.122 41.4C154.226 41.816 153.33 42.024 152.434 42.024C151.09 42.024 149.666 41.544 148.162 40.584C146.658 39.624 145.394 38.424 144.37 36.984C143.346 35.544 142.834 34.136 142.834 32.76C142.834 31.64 143.202 30.6 143.938 29.64C144.674 28.648 145.65 27.864 146.866 27.288C148.114 26.68 149.41 26.376 150.754 26.376H153.202C153.618 26.376 154.082 26.648 154.594 27.192C155.138 27.736 155.794 28.536 156.562 29.592L156.082 30.744C155.41 30.392 154.786 30.216 154.21 30.216C153.122 30.216 152.018 30.504 150.898 31.08C149.778 31.624 148.85 32.36 148.114 33.288C147.378 34.216 147.01 35.16 147.01 36.12C147.01 36.664 147.234 37.128 147.682 37.512C148.162 37.864 148.738 38.04 149.41 38.04C150.754 38.04 152.146 37.592 153.586 36.696C155.058 35.8 156.386 34.552 157.57 32.952V23.16H140.578V17.928H158.05L163.186 23.16ZM179.314 23.16H165.97L160.834 17.928H179.314V23.16ZM143.669 60.696C145.749 62.904 148.101 64.648 150.725 65.928C153.317 67.24 155.941 67.896 158.597 67.896C160.037 67.896 161.445 67.576 162.821 66.936C164.197 66.296 165.333 65.48 166.229 64.488C167.093 63.496 167.525 62.488 167.525 61.464C167.525 60.504 167.157 59.688 166.421 59.016C165.653 58.344 164.741 58.008 163.685 58.008C162.917 58.008 162.133 58.168 161.333 58.488C160.501 58.84 159.829 59.272 159.317 59.784C158.773 60.296 158.501 60.808 158.501 61.32C158.501 61.672 158.645 61.96 158.933 62.184C159.189 62.44 159.509 62.568 159.893 62.568C160.533 62.568 161.397 61.896 162.485 60.552L165.701 62.52C165.125 63.16 164.501 63.656 163.829 64.008C163.125 64.392 162.421 64.584 161.717 64.584C160.501 64.584 159.253 64.312 157.973 63.768C156.661 63.256 155.589 62.6 154.757 61.8C153.893 61 153.461 60.2 153.461 59.4C153.461 58.536 153.781 57.704 154.421 56.904C155.061 56.136 155.925 55.512 157.013 55.032C158.069 54.552 159.205 54.312 160.421 54.312C162.245 54.312 164.101 54.808 165.989 55.8C167.877 56.792 169.43 58.04 170.646 59.544C171.894 61.048 172.518 62.488 172.518 63.864C172.518 65.144 172.054 66.344 171.126 67.464C170.198 68.616 168.981 69.528 167.477 70.2C165.941 70.872 164.357 71.208 162.725 71.208C155.141 71.208 148.261 68.248 142.085 62.328L143.669 60.696ZM178.031 17.928H193.919L198.623 23.16C199.775 24.536 200.671 25.88 201.311 27.192C201.951 28.504 202.271 29.672 202.271 30.696C202.271 31.72 201.919 32.536 201.215 33.144C200.511 33.72 199.631 34.152 198.575 34.44C197.551 34.728 196.143 35.016 194.351 35.304C192.303 35.656 190.655 36.008 189.407 36.36C188.191 36.712 187.151 37.304 186.287 38.136C185.423 38.936 184.991 40.04 184.991 41.448C184.991 42.408 185.327 43.32 185.999 44.184C186.671 45.048 187.535 45.752 188.591 46.296C189.679 46.84 190.799 47.112 191.951 47.112C193.967 47.112 195.903 46.712 197.759 45.912C199.615 45.08 201.135 43.928 202.319 42.456L206.687 46.728C205.439 48.072 203.919 49.128 202.127 49.896C200.335 50.632 198.463 51 196.511 51C194.015 51 191.551 50.36 189.119 49.08C186.719 47.768 184.751 46.056 183.215 43.944C181.711 41.832 180.959 39.656 180.959 37.416C180.959 35.624 181.487 34.232 182.543 33.24C183.599 32.248 184.847 31.56 186.287 31.176C187.727 30.792 189.599 30.424 191.903 30.072C194.111 29.752 195.711 29.432 196.703 29.112C197.695 28.76 198.191 28.152 198.191 27.288C198.191 26.584 197.999 25.88 197.615 25.176C197.231 24.44 196.703 23.768 196.031 23.16H178.031V17.928ZM196.607 17.928H207.935V23.16H201.359L196.607 17.928ZM179.201 60.696C181.281 62.904 183.633 64.648 186.257 65.928C188.849 67.24 191.473 67.896 194.129 67.896C195.569 67.896 196.977 67.576 198.353 66.936C199.729 66.296 200.865 65.48 201.761 64.488C202.625 63.496 203.057 62.488 203.057 61.464C203.057 60.504 202.689 59.688 201.953 59.016C201.185 58.344 200.273 58.008 199.217 58.008C198.449 58.008 197.665 58.168 196.865 58.488C196.033 58.84 195.361 59.272 194.849 59.784C194.305 60.296 194.033 60.808 194.033 61.32C194.033 61.672 194.177 61.96 194.465 62.184C194.721 62.44 195.041 62.568 195.425 62.568C196.065 62.568 196.929 61.896 198.017 60.552L201.233 62.52C200.657 63.16 200.033 63.656 199.361 64.008C198.657 64.392 197.953 64.584 197.249 64.584C196.033 64.584 194.785 64.312 193.505 63.768C192.193 63.256 191.121 62.6 190.289 61.8C189.425 61 188.993 60.2 188.993 59.4C188.993 58.536 189.313 57.704 189.953 56.904C190.593 56.136 191.457 55.512 192.545 55.032C193.601 54.552 194.737 54.312 195.953 54.312C197.777 54.312 199.633 54.808 201.521 55.8C203.409 56.792 204.961 58.04 206.177 59.544C207.425 61.048 208.049 62.488 208.049 63.864C208.049 65.144 207.585 66.344 206.657 67.464C205.729 68.616 204.513 69.528 203.009 70.2C201.473 70.872 199.889 71.208 198.257 71.208C190.673 71.208 183.793 68.248 177.617 62.328L179.201 60.696ZM195.203 2.232L199.331 6.072L195.203 9.72L190.979 6.072L195.203 2.232ZM247.474 52.728C246.482 53.976 245.17 54.6 243.538 54.6C241.554 54.6 239.234 53.896 236.578 52.488C233.954 51.08 231.666 49.448 229.714 47.592C227.762 45.736 226.786 44.296 226.786 43.272V41.304C226.05 42.04 225.218 42.616 224.29 43.032C223.394 43.448 222.466 43.656 221.506 43.656C219.554 43.656 217.618 43.112 215.698 42.024C213.81 40.904 212.258 39.512 211.042 37.848C209.858 36.152 209.266 34.536 209.266 33C209.266 31.784 209.666 30.648 210.466 29.592C211.266 28.536 212.322 27.688 213.634 27.048C214.946 26.408 216.322 26.088 217.762 26.088C219.394 26.088 220.978 26.472 222.514 27.24C224.082 28.008 225.426 29.08 226.546 30.456V23.16H206.578V17.928H226.978L232.162 23.16V46.344C232.162 46.952 232.594 47.672 233.458 48.504C234.322 49.304 235.33 50.008 236.482 50.616C237.666 51.192 238.674 51.48 239.506 51.48C240.69 51.48 241.714 50.904 242.578 49.752L247.474 52.728ZM234.898 23.16L229.666 17.928H237.586V23.16H234.898ZM226.546 32.664C225.938 31.864 225.25 31.24 224.482 30.792C223.714 30.312 222.962 30.072 222.226 30.072C220.882 30.072 219.538 30.408 218.194 31.08L224.002 37.512C224.962 36.776 225.81 35.928 226.546 34.968V32.664ZM217.138 39.72C218.93 39.72 220.61 39.336 222.178 38.568L216.322 32.232C215.49 32.904 214.818 33.64 214.306 34.44C213.826 35.24 213.586 36.024 213.586 36.792C213.586 37.592 213.938 38.28 214.642 38.856C215.346 39.432 216.178 39.72 217.138 39.72ZM258.905 23.16V29.16C259.673 28.36 260.473 27.72 261.305 27.24C262.137 26.728 262.905 26.472 263.609 26.472C264.857 26.472 266.185 26.984 267.593 28.008C269.033 29.032 270.233 30.296 271.193 31.8C272.153 33.304 272.633 34.696 272.633 35.976C272.633 37.128 272.265 38.232 271.529 39.288C270.825 40.344 269.881 41.224 268.697 41.928C267.545 42.632 266.313 43.048 265.001 43.176L261.785 38.952C263.705 38.632 265.305 37.88 266.585 36.696C267.897 35.48 268.553 34.152 268.553 32.712C268.553 32.136 268.345 31.624 267.929 31.176C267.545 30.696 267.081 30.456 266.537 30.456C265.385 30.456 264.153 30.904 262.841 31.8C261.529 32.696 260.217 33.96 258.905 35.592V46.344C258.905 46.952 259.353 47.672 260.249 48.504C261.145 49.304 262.185 50.008 263.369 50.616C264.585 51.192 265.609 51.48 266.441 51.48C267.561 51.48 268.521 50.92 269.321 49.8L274.217 52.728C273.705 53.336 273.097 53.8 272.393 54.12C271.721 54.44 271.001 54.6 270.233 54.6C268.345 54.6 266.041 53.912 263.321 52.536C260.633 51.16 258.281 49.56 256.265 47.736C254.281 45.88 253.289 44.312 253.289 43.032V39.672C252.553 40.408 251.737 40.984 250.841 41.4C249.945 41.816 249.049 42.024 248.153 42.024C246.809 42.024 245.385 41.544 243.881 40.584C242.377 39.624 241.113 38.424 240.089 36.984C239.065 35.544 238.553 34.136 238.553 32.76C238.553 31.64 238.921 30.6 239.657 29.64C240.393 28.648 241.369 27.864 242.585 27.288C243.833 26.68 245.129 26.376 246.473 26.376H248.921C249.337 26.376 249.801 26.648 250.313 27.192C250.857 27.736 251.513 28.536 252.281 29.592L251.801 30.744C251.129 30.392 250.505 30.216 249.929 30.216C248.841 30.216 247.737 30.504 246.617 31.08C245.497 31.624 244.569 32.36 243.833 33.288C243.097 34.216 242.729 35.16 242.729 36.12C242.729 36.664 242.953 37.128 243.401 37.512C243.881 37.864 244.457 38.04 245.129 38.04C246.473 38.04 247.865 37.592 249.305 36.696C250.777 35.8 252.105 34.552 253.289 32.952V23.16H236.297V17.928H253.769L258.905 23.16ZM275.033 23.16H261.689L256.553 17.928H275.033V23.16ZM300.726 23.16V46.344C300.726 46.952 301.158 47.672 302.022 48.504C302.918 49.304 303.958 50.008 305.142 50.616C306.358 51.192 307.382 51.48 308.214 51.48C309.398 51.48 310.374 50.92 311.142 49.8L316.038 52.728C315.494 53.336 314.87 53.8 314.166 54.12C313.494 54.44 312.774 54.6 312.006 54.6C310.118 54.6 307.814 53.912 305.094 52.536C302.406 51.192 300.07 49.608 298.086 47.784C296.102 45.928 295.11 44.344 295.11 43.032V37.368H285.942V41.064C285.942 41.416 285.83 41.704 285.606 41.928C285.382 42.152 285.094 42.264 284.742 42.264C284.038 42.264 282.934 41.688 281.43 40.536C279.926 39.384 278.566 38.104 277.35 36.696C276.134 35.288 275.526 34.232 275.526 33.528C275.526 33.208 275.67 32.936 275.958 32.712C276.246 32.488 276.614 32.376 277.062 32.376H280.326V23.16H273.75V17.928H295.446L300.726 23.16ZM306.102 23.16H303.462L298.23 17.928H306.102V23.16ZM285.942 23.16V32.376H295.11V23.16H285.942Z" fill="white"/>
</svg>
